<?xml version="1.0" standalone="no"?>
<!DOCTYPE svg PUBLIC "-//W3C//DTD SVG 20010904//EN"
 "http://www.w3.org/TR/2001/REC-SVG-20010904/DTD/svg10.dtd">
<svg version="1.0" xmlns="http://www.w3.org/2000/svg"
 width="960.000000pt" height="600.000000pt" viewBox="0 0 960.000000 600.000000"
 preserveAspectRatio="xMidYMid meet">

<g transform="translate(0.000000,600.000000) scale(0.100000,-0.100000)"
fill="#000000" stroke="none">
<path d="M0 3507 c0 -1926 3 -2496 12 -2505 18 -18 27 -15 21 7 -3 10 1 22 8
26 8 5 10 4 5 -3 -4 -7 -4 -17 0 -23 4 -6 17 2 34 23 23 26 31 31 41 21 7 -7
17 -13 23 -13 6 0 5 5 -2 12 -20 20 -14 29 15 22 34 -8 29 -4 38 -34 7 -23 7
-23 -9 -7 -21 21 -27 22 -20 3 4 -11 0 -13 -14 -9 -25 6 -39 -15 -15 -24 36
-13 45 -48 11 -38 -16 4 -19 3 -10 -3 11 -7 11 -12 -1 -23 -7 -8 -12 -19 -10
-26 2 -6 -8 -24 -22 -39 -26 -28 -27 -28 -41 -9 -13 18 -14 18 -14 -8 0 -18
-5 -27 -16 -27 -10 0 -14 -6 -10 -15 3 -8 1 -15 -4 -15 -5 0 -11 8 -13 18 -3
9 -5 -97 -6 -237 0 -140 2 -251 6 -248 3 4 12 -2 20 -13 8 -11 19 -20 25 -20
7 0 7 4 -1 14 -8 10 -7 19 7 37 11 13 17 29 15 35 -2 6 8 16 22 22 33 15 58
15 49 0 -4 -7 -3 -8 5 -4 6 4 9 11 6 15 -2 5 11 16 29 26 24 13 32 23 28 37
-3 12 6 28 23 44 26 24 28 24 41 7 12 -16 15 -16 27 -3 6 8 18 15 26 15 8 0
15 13 17 33 4 37 -7 41 -28 10 -8 -12 -17 -17 -21 -12 -8 13 1 24 42 53 33 23
34 23 45 5 15 -27 25 -62 18 -68 -3 -3 -14 -6 -24 -6 -10 0 -18 -4 -18 -10 0
-5 12 -10 26 -10 22 0 24 -3 19 -22 -13 -44 -56 -62 -73 -32 -15 27 -64 25
-85 -2 -18 -24 -18 -24 5 -33 19 -8 20 -10 7 -16 -10 -4 -15 -14 -12 -25 3
-10 -2 -31 -11 -46 l-15 -29 6 34 c5 30 4 33 -11 28 -14 -6 -16 -3 -11 13 5
14 2 20 -10 20 -14 0 -15 -7 -10 -44 4 -24 4 -58 0 -75 -5 -26 -11 -31 -26
-26 -12 4 -21 1 -25 -10 -4 -10 -13 -14 -22 -10 -8 3 -19 1 -22 -6 -5 -8 -13
-7 -29 3 -18 11 -23 11 -30 -1 -5 -7 -14 -10 -20 -7 -8 5 -11 -25 -11 -103 0
-101 2 -110 18 -104 9 4 20 11 24 17 4 6 8 1 8 -12 0 -15 -8 -26 -25 -32 -14
-5 -25 -12 -25 -15 0 -6 66 1 79 9 5 4 12 2 16 -4 10 -16 1242 -14 1248 3 4 9
6 9 6 0 1 -10 833 -13 4126 -13 l4125 0 0 3000 0 3000 -4800 0 -4800 0 0
-2493z m2105 2115 c19 -11 19 -11 -5 -13 -14 -1 -31 -3 -37 -3 -30 -3 -15 -22
22 -28 22 -3 49 -9 60 -13 14 -4 29 1 44 14 33 29 39 27 123 -31 13 -10 47
-21 74 -25 30 -4 54 -13 62 -25 7 -10 22 -18 33 -18 11 0 22 -7 25 -15 10 -25
57 -41 114 -39 110 4 200 33 157 50 -9 3 -14 10 -11 15 8 13 48 11 62 -3 7 -7
12 -9 12 -5 0 4 13 1 30 -8 46 -24 63 -20 56 13 -5 23 -3 22 19 -13 14 -22 23
-48 21 -58 -3 -14 0 -16 15 -12 12 4 19 2 19 -7 0 -8 21 -32 46 -53 25 -22 56
-50 68 -61 22 -23 90 -31 102 -13 3 5 22 9 43 9 45 0 88 -30 93 -63 2 -12 8
-22 13 -23 19 -1 70 -29 81 -43 20 -26 62 1 66 41 l3 33 17 -32 c14 -24 22
-30 39 -26 14 4 20 1 19 -8 -4 -28 13 -59 31 -59 11 0 19 4 19 8 0 5 18 16 40
25 23 9 40 22 40 31 0 9 5 16 10 16 6 0 10 -5 10 -11 0 -7 10 -9 25 -5 15 4
25 2 25 -4 0 -6 8 -14 18 -17 9 -4 23 -13 30 -20 7 -7 22 -13 33 -13 16 0 18
-5 13 -27 -4 -16 -13 -32 -21 -36 -7 -4 -13 -21 -13 -37 0 -23 5 -30 19 -30
23 0 34 -45 18 -72 -16 -25 12 -51 52 -50 30 1 41 -11 21 -23 -19 -12 -10 -45
14 -54 13 -5 26 -17 30 -26 4 -11 12 -14 26 -10 28 9 62 -12 55 -35 -4 -12 1
-23 13 -32 10 -7 25 -24 31 -37 11 -19 11 -25 0 -32 -10 -6 -11 -9 -1 -9 6 0
12 -8 12 -18 0 -13 13 -21 48 -31 26 -7 53 -14 60 -17 23 -7 13 -26 -11 -20
-14 3 -32 -1 -43 -9 -16 -13 -17 -16 -4 -25 8 -5 23 -10 32 -10 9 0 18 -7 20
-15 2 -8 30 -36 62 -62 48 -39 68 -66 108 -141 27 -51 46 -97 43 -103 -4 -5 3
-21 14 -35 12 -15 21 -31 21 -36 0 -6 13 -30 29 -53 16 -24 27 -52 25 -62 -8
-30 22 -87 76 -144 66 -69 82 -90 45 -59 -17 14 -34 31 -38 38 -12 19 -27 14
-27 -9 0 -13 8 -23 21 -26 16 -4 20 -12 16 -30 -2 -13 0 -26 4 -29 5 -3 14
-15 19 -27 8 -16 5 -14 -13 7 -32 37 -47 27 -47 -31 0 -49 43 -133 68 -133 6
0 12 -4 12 -9 0 -5 -6 -11 -12 -14 -8 -3 -3 -9 12 -16 14 -7 41 -35 60 -62 29
-43 36 -48 46 -35 14 20 34 21 34 1 0 -26 23 -65 42 -70 18 -6 26 -45 9 -45
-18 0 -180 97 -193 115 -5 6 -11 6 -20 -3 -10 -10 -8 -15 9 -27 24 -17 36 -65
24 -97 -8 -20 -10 -21 -16 -6 -5 12 -17 17 -42 16 -30 -1 -33 -3 -19 -13 8 -7
12 -15 8 -19 -4 -4 -2 -7 3 -6 24 5 33 -1 28 -20 -3 -11 4 -30 16 -46 21 -27
28 -54 13 -54 -5 0 -14 11 -20 25 -6 14 -16 25 -21 25 -5 0 -12 11 -15 25 -4
14 -10 24 -14 24 -18 -3 -33 2 -28 9 7 11 -82 54 -95 46 -12 -7 -3 -55 19
-101 15 -31 17 -32 34 -16 13 11 22 13 29 6 7 -7 5 -14 -5 -22 -14 -11 -13
-18 3 -61 10 -26 30 -63 45 -82 14 -19 23 -38 20 -41 -4 -4 -1 -13 6 -22 19
-23 3 -31 -19 -11 -27 24 -43 13 -31 -20 6 -14 8 -30 4 -35 -3 -5 0 -9 6 -9 8
0 11 -16 8 -47 -1 -27 3 -63 11 -81 20 -47 9 -49 -38 -7 l-41 37 0 -33 c0 -19
9 -53 20 -76 11 -25 15 -45 9 -48 -5 -4 -6 -11 -3 -17 4 -6 9 -5 15 3 4 7 12
10 16 5 4 -4 0 -13 -10 -20 -21 -16 -23 -46 -2 -46 8 0 15 -8 15 -18 0 -10 5
-23 12 -30 20 -20 2 -23 -21 -3 -31 27 -60 87 -66 136 -2 22 -11 58 -19 80
-12 35 -14 37 -18 15 -1 -14 0 -61 4 -104 6 -59 4 -86 -6 -106 -11 -23 -11
-33 0 -60 8 -18 14 -40 13 -49 0 -9 -5 -1 -10 16 -5 18 -14 33 -19 33 -5 0 -9
17 -10 38 -1 20 -2 69 -3 107 -1 39 -6 76 -10 83 -5 7 -6 19 -3 27 9 24 -17
80 -56 125 -35 40 -50 69 -29 55 6 -3 8 7 7 22 -2 16 -4 33 -5 40 -1 12 -61
36 -69 28 -3 -3 0 -5 6 -5 7 0 12 -5 12 -12 0 -6 7 -19 16 -29 23 -26 8 -42
-32 -34 -38 7 -46 -7 -12 -22 14 -6 22 -20 24 -44 5 -49 7 -58 13 -57 22 2 51
-3 51 -9 -1 -19 -19 -35 -31 -27 -8 4 -20 9 -29 10 -8 2 -24 4 -35 6 -15 2
-19 -2 -17 -16 3 -14 -1 -17 -12 -13 -19 7 -20 3 -5 -24 9 -17 7 -20 -8 -17
-16 3 -18 -4 -15 -54 4 -73 -13 -76 -27 -5 -15 75 -16 100 -8 114 10 16 -9 53
-27 53 -7 0 -16 -14 -20 -30 -3 -17 -15 -43 -27 -59 -15 -21 -26 -61 -37 -140
-9 -60 -13 -113 -10 -116 3 -4 18 1 32 10 l26 17 0 -40 c0 -31 4 -41 20 -45
28 -7 25 -26 -7 -37 -16 -6 -36 -15 -45 -20 -10 -6 -25 -10 -33 -10 -11 0 -15
-12 -16 -47 -1 -74 -33 -268 -44 -269 -32 -3 -44 -17 -41 -51 1 -19 8 -38 16
-43 8 -5 10 -15 6 -26 -4 -11 -10 -39 -12 -64 -3 -25 -10 -58 -15 -74 -5 -16
-9 -40 -9 -53 0 -15 -5 -23 -12 -20 -7 2 -19 -3 -26 -12 -11 -14 -12 -14 -11
4 1 11 1 24 0 29 -2 14 -31 -15 -31 -31 0 -18 -27 -46 -34 -35 -3 5 -4 27 -3
50 3 45 -3 51 -27 27 -22 -23 -26 -19 -26 26 0 37 2 41 21 36 17 -5 18 -3 8 9
-7 9 -21 13 -32 10 -13 -3 -21 1 -24 15 -3 12 -9 17 -12 12 -6 -9 -57 -43 -64
-43 -8 0 -14 49 -7 57 4 4 3 23 -2 41 -7 26 -12 31 -22 23 -16 -13 -26 -4 -26
23 0 11 -10 35 -22 53 -20 28 -29 32 -60 31 -22 -1 -39 -7 -43 -16 -7 -18 2
-32 21 -32 8 0 14 -5 14 -11 0 -18 -42 14 -51 39 -7 18 -4 24 14 31 22 9 22 9
-5 21 -29 14 -32 20 -22 57 5 18 11 22 30 17 19 -5 24 -2 24 13 0 11 20 39 45
62 51 47 54 59 24 84 -19 17 -22 17 -39 2 -22 -20 -51 -13 -92 19 -14 11 -35
28 -47 37 -47 35 -96 134 -80 160 12 19 11 79 -1 79 -6 0 -8 11 -4 25 3 14 3
33 -2 42 -4 10 -8 54 -9 98 -1 61 -7 91 -24 125 -51 101 -54 122 -48 330 1 41
5 80 9 86 4 6 -3 16 -17 22 -14 7 -25 15 -24 19 4 22 -3 32 -23 35 -13 2 -22
9 -20 16 1 6 -4 12 -11 12 -8 0 -20 11 -27 25 -7 14 -17 26 -22 26 -4 1 -12 3
-18 4 -5 1 -19 3 -31 4 -13 1 -24 12 -30 31 -6 16 -19 32 -28 35 -34 11 -62
45 -55 68 3 12 3 19 -1 15 -5 -4 -13 -2 -19 6 -16 19 -63 29 -72 14 -4 -6 -2
-14 4 -16 7 -2 12 -13 12 -25 0 -20 0 -20 -14 -2 -11 16 -30 20 -107 23 -61 3
-98 9 -107 18 -7 8 -18 14 -24 14 -5 0 -8 7 -4 15 3 8 1 15 -5 15 -6 0 -9 6
-7 12 5 14 139 36 226 37 38 1 52 5 50 13 -3 8 -18 12 -40 10 -45 -4 -170 26
-180 43 -11 19 -48 6 -48 -16 0 -29 -45 -22 -48 8 -1 14 4 23 12 23 19 0 27
59 9 69 -15 8 43 32 146 62 68 20 17 31 -68 15 -84 -16 -105 -7 -103 43 1 30
-13 38 -51 32 -4 -1 -3 9 4 21 9 16 9 23 0 26 -24 8 -10 31 38 65 l25 17 -37
-2 c-20 -1 -37 -4 -37 -8 0 -12 -39 -19 -46 -9 -3 5 2 9 10 9 16 0 23 35 9 43
-5 2 -3 2 4 1 19 -5 24 11 12 45 -6 17 -18 31 -26 31 -8 0 -11 -5 -7 -11 4 -8
-1 -9 -17 -4 -13 4 -25 12 -27 16 -2 5 -10 9 -18 9 -8 0 -14 4 -14 9 0 5 -9
11 -20 14 -11 3 -20 9 -19 14 1 4 1 15 0 23 -1 12 -4 11 -12 -3 -6 -10 -8 -25
-5 -33 4 -9 -1 -14 -14 -14 -13 0 -20 7 -20 20 0 10 -8 24 -19 29 -19 10 -38
-3 -79 -53 -14 -18 -32 -21 -32 -6 0 6 -4 10 -10 10 -5 0 -7 -7 -4 -15 10 -25
-30 -18 -54 10 l-22 26 -28 -26 c-15 -14 -30 -25 -34 -25 -5 0 -8 -7 -8 -15 0
-9 6 -12 15 -9 8 4 15 1 15 -5 0 -6 -11 -16 -24 -20 -35 -14 -41 -49 -10 -63
13 -6 24 -14 24 -17 -1 -13 -30 -44 -51 -55 -12 -6 -24 -17 -27 -24 -3 -10 4
-12 32 -7 44 9 47 -4 6 -28 -16 -10 -30 -22 -30 -28 0 -12 27 -12 35 1 8 13
25 13 25 0 0 -6 -11 -16 -25 -22 -22 -10 -25 -17 -23 -55 1 -29 5 -40 12 -33
13 13 36 13 36 0 0 -5 -7 -10 -15 -10 -8 0 -15 -7 -15 -15 0 -8 4 -15 10 -15
5 0 -3 -12 -18 -27 -15 -15 -31 -26 -36 -25 -5 2 -6 -4 -2 -13 3 -9 6 -28 6
-41 0 -15 4 -22 10 -19 6 3 20 3 31 0 l21 -7 -21 -22 c-12 -12 -21 -25 -21
-29 0 -3 -11 -17 -25 -31 -26 -26 -32 -46 -15 -46 5 0 20 12 34 27 l25 27 -2
-25 c-3 -30 -35 -91 -53 -102 -8 -4 -14 -16 -14 -25 1 -14 4 -13 20 6 18 22
21 23 36 8 12 -13 19 -14 30 -5 9 8 14 8 14 1 0 -6 -5 -14 -10 -17 -6 -3 -10
-14 -10 -24 0 -9 -7 -26 -16 -37 -15 -18 -15 -18 -9 9 4 20 1 27 -9 27 -10 0
-21 -20 -31 -52 -18 -62 -18 -58 -1 -58 9 0 12 -11 9 -37 l-4 -38 26 30 26 30
-7 -45 c-4 -25 -7 -56 -6 -69 2 -20 0 -21 -13 -11 -13 11 -15 5 -15 -43 0 -36
-5 -59 -15 -67 -13 -11 -15 -7 -15 24 0 25 -4 35 -11 30 -7 -4 -9 -28 -4 -70
4 -39 3 -64 -3 -64 -5 0 -12 8 -16 18 -21 58 -30 87 -52 172 -14 52 -30 100
-34 105 -11 13 -15 222 -5 257 4 16 4 35 1 44 -6 15 -9 14 -31 -6 -31 -29 -43
-19 -28 21 7 17 9 37 6 45 -3 8 1 14 10 14 8 0 17 12 20 28 6 32 0 43 -13 22
-5 -8 -12 -12 -15 -8 -4 3 3 16 15 28 27 27 18 40 -11 15 -14 -13 -18 -26 -14
-42 7 -31 0 -29 -35 7 -17 17 -35 28 -40 25 -15 -9 -12 -42 6 -59 14 -15 12
-16 -20 -16 -28 0 -34 -3 -29 -16 5 -14 0 -15 -38 -10 -24 3 -38 3 -31 0 6 -3
12 -14 12 -25 0 -13 7 -19 24 -19 13 0 27 -7 30 -16 8 -21 -3 -37 -17 -26 -19
15 -57 21 -63 10 -12 -18 30 -39 71 -35 34 3 41 1 42 -14 1 -11 -4 -19 -10
-19 -7 0 2 -11 18 -25 34 -27 32 -30 -14 -14 -17 6 -31 17 -31 25 0 8 -8 14
-18 14 -26 0 -34 -11 -21 -27 9 -10 7 -13 -11 -13 -13 0 -20 -5 -18 -12 3 -7
-11 -21 -30 -31 -19 -10 -42 -25 -49 -33 -20 -19 -39 -18 -23 1 7 8 9 15 4 16
-25 3 -56 -4 -90 -22 -21 -10 -45 -19 -54 -18 -10 0 -7 4 8 11 12 6 22 15 22
19 0 12 -38 21 -60 14 -16 -5 -20 -2 -20 17 0 32 -15 52 -30 43 -8 -5 -18 -1
-27 10 -12 17 -13 17 -13 2 0 -9 5 -17 10 -17 6 0 10 -6 10 -12 0 -7 7 -26 15
-42 12 -22 13 -37 6 -58 -5 -15 -6 -30 -2 -32 8 -5 23 -94 25 -153 1 -38 24
-45 44 -13 7 11 9 20 5 20 -14 0 -30 46 -23 65 5 15 8 13 13 -13 4 -22 11 -30
21 -26 20 8 26 -27 8 -48 -10 -12 -11 -18 -4 -18 7 0 12 -5 12 -10 0 -6 -11
-8 -25 -4 -21 5 -25 3 -25 -14 0 -24 19 -40 29 -24 3 5 20 11 36 13 17 2 35 7
41 11 8 6 8 -6 1 -42 -5 -27 -13 -50 -17 -50 -16 0 -54 -141 -49 -177 4 -21
-29 -63 -51 -64 -8 -1 -4 -5 10 -9 17 -5 19 -8 8 -9 -10 -1 -18 -5 -18 -11 0
-14 37 -12 44 3 3 6 2 -7 -1 -30 -4 -29 -1 -48 8 -60 12 -14 12 -16 -2 -11
-14 5 -15 -1 -11 -43 3 -38 1 -49 -10 -49 -9 0 -18 -21 -27 -61 -11 -54 -33
-104 -52 -119 -13 -10 -18 -46 -9 -60 9 -13 12 -13 21 3 13 23 29 13 29 -19 0
-21 -3 -23 -19 -14 -14 7 -21 6 -23 -2 -4 -10 -11 -10 -33 0 -15 7 -30 10 -33
8 -2 -3 7 -10 21 -15 14 -5 28 -14 31 -20 5 -7 15 -7 31 -1 20 7 25 6 25 -5 0
-8 -9 -15 -20 -15 -24 0 -26 -13 -5 -30 8 -7 15 -9 15 -5 0 19 28 -19 34 -45
4 -22 0 -36 -18 -55 -13 -14 -28 -25 -33 -25 -16 0 -43 47 -43 75 0 21 -4 25
-31 25 -20 0 -29 4 -26 13 4 12 -52 42 -62 32 -3 -3 0 -15 7 -25 16 -26 7 -25
-18 0 -11 11 -20 29 -20 39 0 19 -52 71 -72 71 -6 0 -7 7 -4 16 8 20 -2 54
-14 54 -5 0 -7 -7 -4 -15 4 -8 2 -15 -3 -15 -17 0 -57 50 -60 75 -3 21 1 25
21 25 13 0 27 7 30 16 4 12 1 14 -14 9 -11 -4 -20 -2 -20 4 0 6 -9 11 -19 11
-19 0 -65 63 -54 74 4 3 16 6 28 6 12 0 30 7 41 15 32 24 42 18 42 -26 1 -23
6 -47 11 -52 6 -6 11 -7 12 -1 3 22 6 31 19 56 12 25 11 30 -5 48 -17 18 -17
20 0 26 10 4 21 1 27 -7 8 -11 9 -10 4 4 -3 9 -1 17 4 17 6 0 10 9 10 20 0 24
21 72 37 85 7 6 13 34 14 63 2 58 -7 72 -51 72 -88 0 -105 2 -117 11 -7 6 -23
9 -35 6 -12 -4 -29 -1 -37 6 -12 9 -13 9 -7 0 4 -7 3 -13 -2 -13 -6 0 -12 7
-16 15 -3 9 -12 12 -22 8 -17 -6 -17 -5 -1 17 25 36 22 53 -8 46 -23 -6 -25
-4 -20 17 4 15 1 30 -9 40 -17 16 -9 27 27 40 23 9 12 28 -11 20 -9 -3 -2 5
15 18 18 13 33 30 33 37 0 15 0 15 -41 -2 -19 -8 -87 -17 -151 -21 -100 -6
-118 -5 -118 7 0 8 21 25 46 37 25 13 48 29 50 36 4 8 19 11 50 7 44 -5 44 -4
44 27 0 24 4 31 20 31 10 0 24 -9 30 -20 15 -28 31 -25 68 11 51 50 40 61 -34
35 -45 -15 -214 -28 -214 -16 0 8 23 13 113 26 26 3 47 11 47 16 0 6 12 8 29
5 45 -9 65 1 83 44 10 24 26 43 38 46 21 6 28 33 9 33 -6 0 -24 -11 -41 -25
-16 -14 -42 -28 -56 -31 -15 -4 -38 -13 -52 -22 -26 -16 -90 -23 -90 -10 0 4
8 8 17 8 21 0 7 16 -29 34 -12 6 -28 27 -34 46 -19 59 4 97 28 45 7 -15 17
-24 25 -21 7 3 13 1 13 -4 0 -5 10 -10 23 -12 14 -2 21 -9 20 -21 -1 -16 4
-18 35 -12 38 7 74 29 106 64 10 11 23 18 27 15 16 -9 69 36 75 64 4 15 15 41
25 58 10 17 16 34 12 37 -13 13 -41 7 -48 -10 -7 -17 -8 -16 -15 2 -9 25 3 41
50 64 33 16 37 16 36 2 -1 -10 7 -16 19 -16 14 0 21 8 23 25 2 19 -5 30 -28
43 -32 20 -41 42 -12 33 13 -4 23 8 44 52 18 39 23 58 15 61 -7 2 -15 9 -19
15 -5 8 -11 7 -20 -2 -10 -10 -10 -14 1 -21 9 -6 10 -11 3 -15 -6 -4 -9 -13
-6 -20 3 -7 -9 -25 -25 -39 -17 -14 -31 -31 -31 -37 0 -16 -24 -38 -52 -49
-17 -7 -19 -10 -5 -10 22 -1 22 -18 0 -29 -22 -11 -46 -4 -37 10 4 6 3 9 -2 6
-5 -2 -24 -10 -42 -17 -29 -12 -33 -17 -27 -38 4 -18 2 -24 -7 -21 -21 7 -15
61 8 73 26 13 54 41 54 53 0 6 6 23 14 39 22 45 34 90 27 102 -4 5 -25 12 -47
13 -37 3 -41 6 -42 31 -1 27 11 36 23 17 3 -5 17 -10 31 -10 15 0 24 -6 24
-15 0 -29 25 -14 48 28 12 23 22 48 22 55 0 19 -21 14 -27 -7 -4 -16 -11 -18
-41 -14 -49 8 -49 9 -12 31 30 19 82 83 79 99 -3 19 2 25 14 15 9 -8 21 -4 45
14 38 30 42 49 8 40 -32 -8 -44 20 -13 30 12 4 28 15 35 25 7 11 23 19 35 19
29 0 53 15 39 24 -18 11 -1 36 24 36 17 0 25 7 30 25 8 33 -1 56 -21 49 -10
-4 -15 0 -15 10 0 21 -26 21 -34 0 -5 -12 -14 -14 -38 -9 -18 4 -36 13 -40 19
-7 10 12 26 35 30 7 1 18 5 25 9 6 5 16 6 21 2 19 -11 20 13 1 30 -24 22 -25
38 -4 56 14 11 13 14 -6 24 -20 11 -19 12 21 28 34 13 40 20 31 29 -19 19 -14
24 23 25 32 1 102 45 104 65 1 3 -17 4 -39 1 -26 -4 -40 -2 -40 6 0 16 -25 14
-40 -4 -14 -17 -85 -21 -75 -4 4 5 -1 19 -11 30 -17 19 -16 19 54 17 75 -2
113 13 82 32 -8 5 -23 7 -32 4 -10 -3 -18 -1 -18 5 0 6 -5 11 -11 11 -6 0 -8
-9 -4 -21 5 -16 3 -20 -6 -16 -8 2 -13 10 -11 17 5 20 -18 30 -70 30 -52 0
-100 -17 -95 -34 2 -6 23 -13 48 -16 44 -5 44 -5 12 -12 -18 -4 -41 -4 -50 -1
-16 6 -16 5 -4 -10 7 -9 11 -17 9 -17 -5 0 -70 31 -77 36 -10 9 65 61 104 73
25 7 45 16 45 20 0 3 35 5 77 4 43 -2 85 0 93 4 8 3 24 6 35 7 13 1 21 9 23
26 5 37 17 44 44 26 22 -15 29 -15 73 1 46 15 47 17 24 25 -13 5 -39 7 -56 3
-25 -4 -33 -2 -33 8 0 8 -7 18 -16 21 -12 5 -13 10 -6 19 8 9 4 19 -14 36 -14
13 -23 26 -21 28 3 2 28 12 56 23 42 15 53 16 57 5 7 -16 44 -7 44 11 0 8 7
14 15 14 8 0 15 -4 15 -10 0 -5 6 -10 14 -10 11 0 12 5 3 25 -9 19 -18 25 -35
22 -12 -2 -25 0 -28 5 -3 5 -13 7 -21 4 -9 -4 -13 -1 -11 6 3 8 24 13 54 14
31 0 61 8 83 22 l34 20 -25 25 -25 25 26 13 c14 7 29 13 33 13 4 1 19 18 33
38 23 34 24 38 8 48 -14 8 -15 13 -5 17 7 3 39 30 71 62 115 113 155 137 289
176 81 24 144 26 177 7z m285 -82 c0 -5 -2 -10 -4 -10 -3 0 -8 5 -11 10 -3 6
-1 10 4 10 6 0 11 -4 11 -10z m343 -50 c3 -11 1 -18 -4 -14 -5 3 -9 12 -9 20
0 20 7 17 13 -6z m327 -89 c0 -6 -4 -13 -10 -16 -5 -3 -10 1 -10 9 0 9 5 16
10 16 6 0 10 -4 10 -9z m-1537 -66 c-3 -9 -8 -14 -10 -11 -3 3 -2 9 2 15 9 16
15 13 8 -4z m3340 -119 c5 -15 7 -30 4 -33 -8 -7 -57 50 -51 59 10 15 39 -1
47 -26z m-155 -80 c-2 -13 -10 -21 -23 -21 -23 0 -33 34 -14 45 20 13 40 -1
37 -24z m161 -7 c11 -33 -1 -39 -22 -9 -14 20 -14 20 -41 -1 -39 -30 -44 -16
-8 21 35 35 56 32 71 -11z m2401 8 c5 -17 8 -33 5 -36 -9 -8 -58 46 -52 56 12
20 37 9 47 -20z m1775 -36 c-4 -3 -18 7 -32 23 -24 28 -24 30 -7 37 15 5 22 0
32 -23 7 -17 10 -33 7 -37z m-4510 45 c41 -17 55 -42 55 -97 0 -48 -33 -100
-79 -124 -35 -17 -206 -32 -179 -15 10 6 22 29 28 51 6 22 14 47 17 55 3 9 -2
14 -13 15 -17 0 -16 2 3 11 13 6 25 26 32 54 14 54 14 52 -6 57 -10 3 10 5 45
6 34 0 78 -5 97 -13z m2602 2 c-4 -11 -45 -146 -64 -211 -4 -17 -2 -17 19 -7
l23 11 -24 -20 c-28 -25 -49 -27 -58 -5 -3 8 8 62 24 119 21 73 27 107 20 114
-8 8 0 11 27 11 26 0 37 -4 33 -12z m393 6 c0 -4 -9 -38 -21 -76 -11 -39 -18
-72 -16 -74 2 -3 18 10 34 29 27 31 63 54 63 41 0 -4 -12 -15 -26 -26 -22 -18
-25 -26 -19 -57 9 -48 14 -54 33 -39 13 11 15 11 7 -2 -15 -28 -38 -50 -51
-50 -7 0 -18 18 -24 40 -6 22 -14 40 -19 40 -4 0 -15 -18 -24 -40 -14 -36 -39
-52 -50 -32 -2 4 11 56 29 116 26 83 31 112 23 122 -9 11 -5 14 25 14 20 0 36
-3 36 -6z m190 -3 c0 -5 -9 -37 -20 -72 -10 -34 -17 -66 -14 -71 3 -4 -2 -18
-10 -30 -9 -12 -16 -30 -16 -40 0 -21 -36 -43 -45 -28 -4 6 8 58 25 116 17 58
29 112 26 120 -4 10 3 14 24 14 17 0 30 -4 30 -9z m256 -16 c6 -25 -5 -51 -13
-30 -13 36 -21 38 -48 16 -41 -31 -53 -26 -20 9 36 38 72 40 81 5z m-1790 -45
c-1 -16 -4 -30 -8 -30 -8 0 -49 -132 -43 -138 3 -3 10 -1 18 4 7 5 4 1 -6 -8
-47 -43 -66 -11 -43 69 11 39 12 60 5 69 -7 9 -5 14 9 18 11 4 27 15 37 26 25
27 32 25 31 -10z m-1486 -13 c0 -2 -9 -30 -20 -62 -26 -74 -26 -93 -3 -74 15
13 15 12 5 -8 -14 -26 -50 -39 -65 -24 -8 8 -7 24 2 59 8 26 14 58 15 72 1 14
8 28 16 32 16 7 50 10 50 5z m167 -13 c9 -23 -29 -67 -67 -80 -40 -13 -50 -32
-25 -50 12 -9 25 -10 42 -3 38 14 41 11 8 -11 -66 -44 -129 -7 -106 63 11 34
53 80 81 90 30 11 61 7 67 -9z m109 -6 c-3 -13 -12 -44 -20 -70 -15 -48 -11
-59 12 -36 8 8 12 9 12 1 0 -15 -48 -53 -67 -53 -23 0 -25 25 -8 84 9 32 14
63 11 71 -5 14 11 22 48 24 14 1 17 -4 12 -21z m83 -45 c-21 -62 -24 -87 -9
-78 6 3 10 2 10 -4 0 -12 -32 -31 -53 -31 -23 0 -26 62 -5 101 10 19 18 39 18
46 0 15 30 32 46 26 9 -3 8 -18 -7 -60z m246 57 c5 -7 11 -8 19 -1 6 5 17 6
24 2 9 -5 5 -33 -18 -114 -16 -58 -27 -112 -25 -119 4 -10 -4 -14 -27 -13 -18
0 -32 4 -30 8 18 47 45 150 50 196 3 33 1 42 -9 39 -21 -6 -49 -68 -49 -107 0
-27 3 -32 17 -27 15 6 15 4 -2 -14 -35 -38 -65 -21 -65 36 0 66 90 154 115
114z m173 -2 c-23 -62 -39 -120 -34 -125 3 -3 14 0 23 8 10 7 5 -1 -11 -19
-31 -33 -60 -41 -69 -19 -2 7 4 39 14 72 10 33 17 65 14 72 -5 14 10 21 44 22
14 1 21 -4 19 -11z m232 2 c0 -7 7 -7 20 0 30 16 36 -9 16 -67 -21 -61 -21
-77 2 -69 12 4 10 0 -7 -14 -51 -44 -73 -15 -46 64 17 51 16 86 -4 86 -12 0
-41 -63 -48 -106 -5 -29 -3 -34 13 -34 18 -1 18 -1 0 -15 -28 -21 -45 -19 -58
10 -22 49 41 155 93 155 11 0 19 -5 19 -10z m156 -27 c-1 -21 -10 -54 -18 -73
-8 -19 -18 -43 -21 -52 -4 -11 -13 -15 -27 -11 -12 3 -19 11 -17 17 17 45 37
128 32 136 -3 4 3 11 12 13 39 10 43 8 39 -30z m93 23 c9 -10 6 -29 -9 -77
-24 -78 -24 -74 -2 -58 14 11 13 10 -2 -9 -11 -12 -27 -22 -38 -22 -22 0 -24
28 -4 93 15 49 6 61 -24 35 -8 -7 -2 2 14 20 32 35 47 39 65 18z m315 -8 c-4
-13 -8 -32 -9 -43 -3 -47 -28 -104 -48 -109 -12 -3 -23 -4 -25 -2 -2 3 6 35
17 72 14 47 17 72 10 80 -7 9 -4 14 13 17 47 9 50 8 42 -15z m61 12 c3 -6 3
-19 0 -30 -5 -15 -12 -19 -31 -14 -16 4 -24 2 -24 -7 0 -7 -3 -10 -6 -7 -7 7
14 50 30 60 15 10 24 10 31 -2z m156 0 c14 -8 19 -21 19 -52 0 -34 -6 -47 -39
-79 -63 -63 -121 -52 -121 24 0 32 7 46 39 78 39 40 67 47 102 29z m125 -27
c-1 -21 -10 -55 -19 -75 -10 -21 -17 -42 -17 -48 0 -5 -3 -10 -7 -11 -5 0 -16
-2 -25 -4 -22 -4 -22 -6 2 77 12 37 18 72 15 77 -3 5 3 12 12 14 39 10 43 8
39 -30z m93 23 c9 -10 6 -29 -9 -77 -24 -78 -24 -74 -2 -58 14 11 13 10 -2 -9
-11 -12 -27 -22 -38 -22 -22 0 -24 28 -4 93 15 49 6 61 -24 35 -8 -7 -2 2 14
20 32 35 47 39 65 18z m175 8 c25 -4 46 -11 46 -15 0 -5 -6 -9 -14 -9 -8 0
-13 -11 -13 -27 0 -34 -35 -63 -76 -63 -70 0 -92 74 -32 108 24 14 29 14 89 6z
m366 -4 c0 -7 6 -7 18 -2 35 19 40 4 21 -59 -23 -75 -24 -83 -1 -75 12 4 10 0
-7 -14 -51 -44 -73 -15 -46 64 30 89 2 119 -34 37 -26 -61 -27 -91 -3 -91 15
-1 15 -2 -2 -15 -28 -21 -45 -19 -58 10 -22 49 41 155 93 155 11 0 19 -5 19
-10z m537 -6 c3 -9 -1 -40 -11 -68 -20 -66 -20 -72 1 -55 15 13 15 12 5 -8
-13 -23 -45 -38 -62 -28 -14 9 -12 35 5 85 18 51 13 60 -16 34 -22 -19 -22
-19 -10 3 13 25 49 53 69 53 7 0 15 -7 19 -16z m185 -1 c49 -44 -22 -163 -99
-163 -74 0 -67 114 10 160 39 24 65 25 89 3z m122 -5 c-4 -13 -8 -32 -10 -43
-5 -40 -42 -112 -58 -112 -20 0 -20 21 0 81 9 26 14 55 11 66 -5 21 5 28 41
29 20 1 22 -2 16 -21z m93 6 c3 -9 -1 -40 -11 -68 -20 -64 -21 -82 -3 -70 7 5
4 1 -6 -8 -46 -43 -66 -12 -42 62 19 58 15 72 -15 45 -11 -10 -20 -13 -20 -7
0 14 58 62 76 62 8 0 17 -7 21 -16z m177 10 c25 -4 46 -11 46 -15 0 -5 -6 -9
-14 -9 -8 0 -13 -11 -13 -27 0 -34 -35 -63 -76 -63 -70 0 -92 74 -32 108 24
14 29 14 89 6z m230 -16 c-4 -13 -8 -32 -9 -43 -3 -37 -42 -112 -59 -112 -20
0 -20 21 0 81 9 26 14 55 11 66 -5 21 5 28 41 29 20 1 22 -2 16 -21z m93 6 c3
-9 -1 -40 -11 -68 -20 -64 -21 -82 -3 -70 7 5 4 1 -6 -8 -46 -43 -66 -12 -42
62 19 58 15 72 -15 45 -11 -10 -20 -13 -20 -7 0 14 58 62 76 62 8 0 17 -7 21
-16z m212 -1 c4 -3 0 -8 -6 -10 -7 -3 -13 -15 -13 -28 0 -55 -103 -88 -134
-43 -22 31 -20 45 10 75 24 23 30 25 82 19 31 -4 58 -9 61 -13z m97 -5 c-3
-13 -12 -44 -20 -70 -12 -40 -13 -48 -2 -48 8 0 17 7 20 16 4 9 9 14 13 10 10
-9 -48 -66 -68 -66 -26 0 -30 24 -13 81 9 29 13 60 11 70 -5 18 8 25 47 28 14
1 17 -4 12 -21z m109 -22 c7 3 11 13 8 23 -4 14 4 17 51 17 l55 0 -3 -36 c-2
-19 -10 -52 -19 -72 -10 -21 -17 -42 -17 -47 0 -12 -24 -21 -38 -12 -8 5 -6
26 9 75 21 68 19 93 -4 64 -6 -9 -24 -18 -39 -22 -21 -5 -30 -15 -37 -44 -15
-50 -14 -55 7 -48 11 4 9 -1 -7 -14 -13 -12 -31 -19 -40 -18 -34 7 -3 155 35
169 15 5 20 1 22 -17 2 -14 8 -21 17 -18z m204 30 c9 -10 6 -29 -9 -77 -24
-78 -24 -74 -2 -58 14 11 13 10 -2 -9 -11 -12 -27 -22 -38 -22 -22 0 -24 28
-4 93 15 49 6 61 -24 35 -8 -7 -2 2 14 20 32 35 47 39 65 18z m220 -3 c4 -3 0
-8 -6 -10 -7 -3 -13 -15 -13 -28 0 -55 -103 -88 -134 -43 -22 31 -20 45 10 75
24 23 30 25 82 19 31 -4 58 -9 61 -13z m-3965 -20 c-4 -16 -13 -45 -21 -67
-17 -51 -17 -61 5 -45 13 11 13 9 -2 -9 -12 -13 -29 -22 -40 -20 -28 4 -30 60
-5 108 11 19 19 40 19 47 0 7 11 13 25 13 23 0 25 -3 19 -27z m-4444 -36 c-14
-7 -44 -25 -68 -41 -23 -16 -45 -26 -49 -22 -11 11 31 46 73 61 47 17 79 18
44 2z m110 -2 c0 -8 -7 -15 -15 -15 -26 0 -18 20 13 29 1 1 2 -6 2 -14z m5560
-54 c0 -5 19 -15 43 -23 35 -11 43 -18 45 -43 4 -33 -18 -56 -52 -54 -16 1
-17 2 -4 6 48 13 13 57 -40 51 -34 -4 -43 -37 -13 -45 12 -3 21 -9 21 -13 0
-5 -15 -4 -32 1 -18 5 -34 9 -35 9 -2 0 -3 9 -3 20 0 10 9 24 20 30 11 6 17
16 14 25 -4 9 -1 22 6 30 14 17 30 20 30 6z m1480 0 c0 -5 19 -15 43 -23 35
-11 43 -18 45 -43 4 -33 -18 -56 -52 -54 -16 1 -17 2 -4 6 48 13 13 57 -40 51
-35 -4 -42 -35 -10 -47 23 -10 23 -10 1 -10 -52 -2 -74 37 -33 59 11 6 17 16
14 25 -4 9 -1 22 6 30 14 17 30 20 30 6z m490 0 c0 -5 12 -12 28 -16 66 -16
91 -56 55 -87 -23 -19 -73 -32 -73 -18 0 5 9 10 19 10 45 0 32 44 -15 53 -15
3 -31 -2 -41 -11 -14 -14 -13 -18 7 -34 l22 -18 -24 0 c-48 0 -64 43 -23 62
19 9 22 14 14 25 -9 10 -8 17 1 28 14 17 30 20 30 6z m630 0 c0 -5 12 -12 28
-16 41 -10 72 -33 72 -54 0 -23 -28 -47 -62 -53 -35 -6 -36 -1 -3 12 28 10 32
22 13 37 -25 19 -58 21 -74 5 -15 -15 -15 -17 6 -34 l22 -18 -24 0 c-48 0 -64
43 -23 62 19 9 22 14 14 25 -9 10 -8 17 1 28 14 17 30 20 30 6z m-8161 -15 c9
-11 8 -15 -5 -20 -23 -9 -24 -8 -24 14 0 23 13 26 29 6z m-179 -36 c0 -5 -4
-10 -10 -10 -5 0 -10 5 -10 10 0 6 5 10 10 10 6 0 10 -4 10 -10z m5364 -29
c11 -18 -6 -41 -30 -41 -19 0 -24 5 -24 25 0 20 5 25 24 25 14 0 27 -4 30 -9z
m2000 -97 c19 -49 -3 -58 -34 -14 l-21 30 24 0 c14 0 28 -7 31 -16z m-3507
-84 c-3 -12 1 -24 11 -30 15 -8 14 -9 -4 -10 -18 0 -24 -13 -42 -79 -27 -98
-28 -108 -4 -90 14 11 13 10 -2 -9 -11 -12 -29 -22 -42 -22 -31 0 -35 34 -11
84 10 21 17 49 14 62 -2 13 0 21 4 18 5 -3 9 -3 9 0 0 2 3 11 6 20 5 13 -2 16
-32 17 l-39 2 40 6 c26 4 40 11 40 21 0 19 14 30 39 30 13 0 17 -5 13 -20z
m709 -5 c8 -33 -2 -44 -20 -20 -13 18 -14 18 -45 -4 -37 -26 -39 -21 -9 19 28
38 65 40 74 5z m438 -52 l-24 -76 33 31 c59 58 90 36 63 -45 -22 -64 -21 -80
2 -62 14 11 13 10 -2 -9 -24 -27 -66 -30 -66 -4 0 10 7 40 16 66 9 26 13 50 9
54 -10 10 -53 -46 -71 -95 -13 -33 -22 -43 -39 -43 l-23 0 35 112 c18 62 31
118 29 124 -5 12 12 20 45 23 15 1 14 -8 -7 -76z m230 62 c-7 -16 -24 -21 -24
-6 0 8 7 13 27 20 1 1 0 -6 -3 -14z m52 4 c4 -7 -4 -20 -17 -30 -27 -20 -38
-17 -20 5 7 8 10 20 6 26 -3 5 1 10 9 10 8 0 18 -5 22 -11z m122 -17 c3 -18
-1 -22 -22 -22 -19 0 -26 5 -26 18 0 39 43 43 48 4z m398 -21 l-10 -44 -13 31
c-15 38 -41 54 -65 41 -29 -15 -21 -51 22 -103 46 -55 49 -75 17 -111 -20 -24
-29 -27 -77 -25 -30 1 -63 1 -73 1 -15 0 -17 5 -12 32 12 53 21 63 28 29 7
-35 39 -56 72 -48 35 9 37 40 5 85 -16 21 -33 42 -39 46 -6 3 -11 24 -11 45 0
54 26 70 105 67 l61 -2 -10 -44z m553 19 c13 -40 -6 -40 -37 1 l-24 29 25 0
c19 0 28 -8 36 -30z m580 0 c13 -40 -6 -40 -37 1 l-24 29 25 0 c19 0 28 -8 36
-30z m431 4 c16 -41 12 -49 -14 -25 l-25 23 -27 -21 c-38 -30 -44 -17 -9 19
35 37 62 38 75 4z m734 10 c8 -21 -1 -34 -24 -34 -10 0 -21 4 -24 9 -10 16 5
41 24 41 10 0 21 -7 24 -16z m-4110 -6 c34 15 33 -1 0 -27 -26 -20 -53 -17
-69 9 -11 18 5 30 25 18 14 -9 25 -9 44 0z m143 -53 c-1 -19 -4 -35 -9 -35 -8
0 -48 -122 -42 -129 2 -2 12 2 21 9 10 7 6 1 -10 -13 -52 -49 -71 -13 -41 77
12 35 14 50 5 55 -8 5 42 52 76 70 0 1 1 -15 0 -34z m2100 0 c-1 -19 -4 -35
-9 -35 -8 0 -48 -122 -42 -129 2 -2 12 2 21 10 15 11 15 10 -1 -9 -11 -12 -30
-22 -43 -22 -28 0 -30 25 -7 94 13 39 14 50 4 56 -9 6 -4 12 17 23 16 9 35 23
42 31 18 22 19 21 18 -19z m970 0 c-1 -19 -4 -35 -9 -35 -8 0 -48 -122 -42
-129 2 -2 12 2 21 10 15 11 15 10 -1 -9 -11 -12 -30 -22 -43 -22 -28 0 -30 25
-7 94 13 39 14 50 4 56 -9 6 -4 12 17 23 16 9 35 23 42 31 18 22 19 21 18 -19z
m600 0 c-1 -19 -4 -35 -9 -35 -8 0 -48 -122 -42 -129 2 -2 12 2 21 10 15 11
15 10 -1 -9 -11 -12 -30 -22 -43 -22 -28 0 -30 25 -7 94 13 39 14 50 4 56 -9
6 -4 12 17 23 16 9 35 23 42 31 18 22 19 21 18 -19z m-4062 -32 c-22 -21 -45
-75 -45 -104 0 -16 5 -20 20 -16 11 3 20 2 20 -2 0 -16 -26 -31 -52 -31 -21 0
-29 6 -34 26 -9 37 28 109 68 134 37 22 48 19 23 -7z m246 14 l28 5 -19 -68
c-24 -83 -24 -90 -5 -74 8 7 15 8 15 2 0 -17 -28 -34 -52 -30 -27 4 -30 27
-11 75 30 73 2 116 -30 48 -20 -42 -22 -101 -4 -108 6 -2 0 -8 -15 -12 -36 -9
-48 0 -48 38 0 62 76 155 104 127 5 -5 22 -6 37 -3z m407 -30 c-2 -12 -11 -23
-20 -25 -14 -3 -17 4 -16 32 1 31 3 34 20 25 12 -6 18 -19 16 -32z m282 -26
c-11 -34 -20 -68 -20 -74 0 -24 52 41 68 85 13 38 21 48 39 48 27 0 28 -5 10
-56 -8 -22 -17 -52 -21 -68 -7 -27 -6 -28 10 -15 15 12 17 12 12 -1 -6 -20
-47 -40 -65 -33 -11 4 -13 15 -9 37 l6 31 -26 -32 c-26 -34 -68 -45 -76 -21
-3 7 4 39 14 72 10 33 16 65 14 72 -3 8 6 14 27 16 18 2 33 3 34 3 1 -1 -7
-29 -17 -64z m601 36 c28 -51 -40 -147 -105 -147 -40 0 -56 15 -56 55 0 47 52
114 89 115 12 0 11 -3 -1 -17 -35 -41 -51 -143 -22 -143 23 0 57 85 51 130 -4
33 -3 37 14 33 11 -3 25 -15 30 -26z m99 -42 c-24 -71 -26 -99 -5 -71 8 11 15
16 15 11 0 -18 -34 -45 -57 -45 -28 0 -29 16 -7 89 8 29 13 59 10 66 -3 10 5
15 27 17 18 2 33 1 35 -2 1 -3 -7 -32 -18 -65z m668 47 c3 -18 -3 -23 -28 -29
-32 -6 -40 -17 -54 -77 -6 -24 -4 -28 10 -22 14 5 15 4 5 -8 -16 -19 -48 -26
-59 -12 -13 16 -8 53 14 114 15 42 23 52 42 52 19 0 22 -4 17 -20 -5 -15 -2
-20 10 -20 12 0 15 5 11 16 -3 9 -3 20 0 25 10 16 29 4 32 -19z m567 1 c-4
-16 -8 -35 -9 -43 -1 -8 -10 -36 -20 -62 -15 -38 -24 -48 -41 -48 l-23 0 20
66 c11 37 18 75 15 85 -4 14 2 19 27 22 17 2 33 5 35 5 2 1 0 -10 -4 -25z m83
-15 l-5 -29 28 31 c29 31 66 40 75 17 2 -7 -5 -39 -16 -71 -24 -71 -24 -70 -4
-62 14 5 15 4 4 -9 -7 -8 -23 -15 -36 -15 -29 0 -32 26 -9 90 8 24 13 46 9 49
-10 10 -63 -62 -74 -101 -9 -30 -16 -38 -34 -38 l-24 0 19 63 c24 79 24 84 -2
61 -22 -19 -22 -19 -10 3 29 55 86 64 79 11z m293 10 c23 -42 -18 -119 -76
-144 -64 -26 -103 11 -84 80 10 37 60 86 87 86 11 0 13 -3 6 -8 -18 -12 -43
-67 -50 -111 -6 -37 -4 -41 13 -41 28 0 67 90 60 136 -5 28 -3 31 14 27 11 -3
24 -14 30 -25z m377 9 c35 -27 -4 -128 -59 -151 -65 -27 -108 9 -89 75 22 75
98 114 148 76z m594 12 l27 2 -20 -63 c-24 -79 -25 -95 -4 -78 20 16 19 6 -1
-14 -8 -9 -27 -16 -40 -16 -23 0 -25 3 -20 36 4 19 11 44 16 54 6 10 10 31 10
45 0 46 -33 26 -54 -32 -21 -61 -16 -93 12 -72 14 11 13 9 -2 -9 -24 -28 -62
-29 -69 -2 -16 62 65 177 108 152 5 -4 22 -5 37 -3z m-3637 -25 c-33 -35 -43
-90 -21 -112 14 -14 21 -14 49 -4 l32 11 -24 -19 c-26 -22 -81 -26 -99 -8 -7
7 -12 30 -12 51 0 31 7 46 34 73 41 41 78 48 41 8z m255 16 c0 -4 -6 -25 -13
-46 -8 -22 -17 -52 -21 -68 -6 -25 -5 -28 11 -22 16 6 16 5 3 -8 -8 -8 -24
-16 -34 -18 -26 -4 -37 38 -19 74 17 36 17 88 -1 88 -17 0 -46 -69 -46 -110 0
-17 5 -30 12 -30 9 0 9 -3 1 -11 -6 -6 -21 -9 -34 -7 -19 2 -25 10 -27 35 -4
36 29 107 55 122 21 11 113 13 113 1z m1320 -2 c0 -7 -7 -35 -15 -62 -20 -65
-19 -73 5 -51 27 24 26 7 -2 -22 -12 -13 -32 -23 -45 -23 -28 0 -30 22 -8 95
9 27 13 55 11 62 -4 9 4 13 24 13 17 0 30 -5 30 -12z m444 4 c-18 -12 -43 -67
-50 -111 -6 -37 -4 -41 14 -41 26 0 56 61 57 117 0 34 4 43 17 43 51 0 42 -98
-13 -144 -42 -36 -105 -37 -119 -2 -19 51 38 146 88 146 11 0 13 -3 6 -8z
m1141 -29 c-2 -21 -10 -51 -19 -68 -9 -16 -16 -38 -16 -47 0 -13 -8 -18 -26
-18 -19 0 -24 4 -20 18 2 9 13 43 22 75 16 51 16 60 4 68 -11 6 -4 9 22 9 37
0 37 0 33 -37z m98 22 c4 -8 -3 -40 -13 -71 -19 -55 -19 -84 0 -54 6 8 10 10
10 5 0 -18 -23 -35 -47 -35 -28 0 -30 27 -8 90 18 50 13 60 -15 35 -27 -24
-26 -7 2 22 24 26 63 30 71 8z m507 7 c0 -5 -9 -35 -20 -67 -25 -74 -25 -83 1
-59 22 19 22 19 8 -4 -16 -26 -55 -40 -71 -24 -7 7 -4 29 11 73 15 46 18 66
10 76 -9 10 -4 13 25 13 20 0 36 -4 36 -8z m-2635 -137 c0 -22 -31 -33 -47
-17 -17 17 -1 44 24 40 15 -2 23 -10 23 -23z m-1535 -60 c10 -12 10 -18 0 -30
-25 -30 -61 -7 -46 30 3 8 12 15 19 15 8 0 20 -7 27 -15z m1980 0 c10 -12 10
-18 0 -30 -7 -8 -18 -15 -25 -15 -7 0 -18 7 -25 15 -10 12 -10 18 0 30 7 8 18
15 25 15 7 0 18 -7 25 -15z m1988 -13 c4 -28 -24 -40 -45 -19 -14 13 -14 19
-3 32 18 22 44 15 48 -13z m-7964 -91 c16 -18 16 -19 -11 -17 -31 2 -53 12
-53 27 0 16 46 10 64 -10z m-80 -47 c10 -13 19 -14 48 -6 65 18 34 -11 -42
-40 -53 -19 -70 -22 -70 -12 0 7 9 18 20 24 11 6 20 20 20 30 0 24 9 25 24 4z
m5205 -13 c8 -2 -52 -61 -62 -61 -9 0 0 39 15 57 5 6 17 10 26 8 9 -2 19 -4
21 -4z m361 2 c0 -10 -52 -63 -62 -63 -11 0 11 53 25 62 15 10 37 10 37 1z
m-143 -15 c-4 -11 -45 -146 -64 -211 -4 -17 -2 -17 19 -7 l23 11 -24 -21 c-29
-25 -55 -23 -59 5 -1 11 10 64 26 117 21 69 26 100 19 107 -8 8 0 11 27 11 26
0 37 -4 33 -12z m427 -100 c-39 -131 -40 -135 -16 -117 14 11 13 10 -2 -9 -11
-12 -27 -22 -38 -22 -23 0 -24 40 -3 101 26 74 -1 96 -35 29 -22 -43 -27 -100
-9 -100 8 0 8 -5 -1 -15 -16 -20 -46 -19 -54 1 -25 66 46 177 103 159 17 -5
21 0 26 29 4 19 4 39 0 45 -4 7 7 11 28 11 l35 0 -34 -112z m596 102 c0 -5 -4
-10 -10 -10 -5 0 -10 5 -10 10 0 6 5 10 10 10 6 0 10 -4 10 -10z m54 2 c3 -5
-8 -19 -24 -31 -34 -25 -38 -20 -12 14 18 26 28 30 36 17z m681 -22 c-16 -16
-32 -30 -36 -30 -5 0 -3 14 2 30 8 23 17 30 37 30 l26 0 -29 -30z m-2174 -66
c9 -11 10 -20 2 -32 -14 -24 -28 -16 -26 14 4 56 -61 0 -73 -62 -8 -42 16 -67
53 -53 37 14 40 3 4 -15 -36 -19 -72 -21 -89 -4 -17 17 -15 73 3 108 27 51 99
77 126 44z m174 3 c15 -11 17 -22 12 -58 -14 -105 -159 -154 -159 -54 0 41 22
83 56 105 36 23 65 25 91 7z m309 -3 c3 -9 6 -40 6 -70 0 -30 4 -54 9 -54 5 0
19 17 31 37 18 31 19 40 10 59 -13 24 -7 44 15 44 24 0 26 -32 5 -73 -29 -54
-106 -154 -130 -167 -28 -15 -60 -12 -60 5 0 21 27 30 44 16 10 -9 16 -8 26 4
16 19 9 167 -9 189 -10 12 -9 15 6 19 33 9 41 7 47 -9z m538 -1 c49 -44 -22
-163 -99 -163 -53 0 -69 63 -30 121 37 56 94 74 129 42z m278 2 c15 -18 6 -45
-16 -45 -12 0 -15 6 -10 26 6 21 3 25 -10 22 -9 -2 -25 -14 -35 -28 -46 -61
-28 -130 28 -109 37 14 40 3 4 -15 -36 -19 -72 -21 -89 -4 -17 17 -15 73 3
108 26 51 99 77 125 45z m118 3 c-23 -62 -39 -120 -34 -125 3 -3 14 0 23 8 10
7 5 -1 -11 -19 -55 -60 -79 -33 -51 58 10 32 15 62 11 68 -6 10 13 19 48 21
11 1 16 -4 14 -11z m71 -61 c-23 -76 -23 -81 -1 -73 11 4 9 -1 -7 -14 -57 -48
-76 13 -35 106 18 42 27 51 42 47 19 -5 19 -6 1 -66z m161 64 c0 -4 11 -6 25
-3 30 5 32 -7 10 -68 -20 -57 -19 -74 3 -66 12 4 10 0 -7 -14 -51 -44 -73 -15
-46 64 17 51 16 86 -4 86 -12 0 -41 -63 -48 -106 -5 -29 -3 -34 13 -34 18 -1
18 -1 0 -15 -28 -21 -45 -19 -58 10 -22 49 41 155 93 155 11 0 19 -4 19 -9z
m254 -13 c-4 -13 -8 -32 -9 -43 -4 -42 -38 -105 -57 -105 -22 0 -23 13 -2 74
9 26 14 55 11 66 -5 19 7 26 46 29 15 1 17 -4 11 -21z m93 6 c3 -9 -1 -40 -11
-68 -20 -64 -21 -82 -3 -70 7 5 4 1 -6 -8 -46 -43 -66 -12 -42 62 19 58 15 72
-15 45 -11 -10 -20 -13 -20 -7 0 14 58 62 76 62 8 0 17 -7 21 -16z m187 -6
c20 -28 20 -42 -1 -85 -18 -38 -65 -73 -100 -73 -53 0 -69 63 -30 121 40 59
103 77 131 37z m-7182 -20 c-7 -7 -12 -8 -12 -2 0 14 12 26 19 19 2 -3 -1 -11
-7 -17z m-198 -73 c-16 -40 -18 -79 -4 -105 7 -13 7 -21 -1 -25 -17 -11 -21 0
-23 72 -2 69 5 93 30 93 10 0 10 -6 -2 -35z m186 15 c0 -5 -4 -10 -10 -10 -5
0 -10 5 -10 10 0 6 5 10 10 10 6 0 10 -4 10 -10z m1540 -4 c0 -3 -4 -8 -10
-11 -5 -3 -10 -1 -10 4 0 6 5 11 10 11 6 0 10 -2 10 -4z m5730 -31 c10 -12 10
-18 0 -30 -25 -30 -61 -7 -46 30 3 8 12 15 19 15 8 0 20 -7 27 -15z m-5700
-170 c0 -8 -4 -15 -10 -15 -5 0 -7 7 -4 15 4 8 8 15 10 15 2 0 4 -7 4 -15z
m90 -50 c0 -8 -7 -15 -15 -15 -26 0 -18 20 13 29 1 1 2 -6 2 -14z m-61 -36
c-16 -10 -23 -4 -14 10 3 6 11 8 17 5 6 -4 5 -9 -3 -15z m-1703 -54 c-10 -8
-23 -12 -29 -8 -11 7 12 23 33 23 12 -1 11 -4 -4 -15z m-56 -26 c0 -5 -7 -9
-15 -9 -15 0 -20 12 -9 23 8 8 24 -1 24 -14z m3967 -74 c9 -24 -1 -27 -15 -5
-8 13 -8 20 -2 20 6 0 13 -7 17 -15z m-3957 -9 c0 -18 -26 -39 -39 -32 -5 3
-11 0 -14 -7 -2 -7 -16 -13 -31 -15 -24 -2 -25 0 -14 18 13 20 63 49 86 50 6
0 12 -6 12 -14z m953 -23 c-7 -2 -21 -2 -30 0 -10 3 -4 5 12 5 17 0 24 -2 18
-5z m-805 -36 c6 3 12 0 12 -6 0 -6 -6 -11 -14 -11 -7 0 -25 -12 -40 -26 l-26
-27 4 30 c4 43 14 55 34 44 9 -4 23 -6 30 -4z m-294 -32 c-4 -8 -11 -15 -16
-15 -6 0 -5 6 2 15 7 8 14 15 16 15 2 0 1 -7 -2 -15z m142 -22 c-10 -10 -19 5
-10 18 6 11 8 11 12 0 2 -7 1 -15 -2 -18z m-11 -63 c-3 -5 -12 -10 -18 -10 -7
0 -6 4 3 10 19 12 23 12 15 0z m1295 -107 c-1 -5 -12 -21 -25 -38 -30 -36 -34
-19 -4 19 21 26 29 32 29 19z m-1260 -14 c0 -5 -9 -9 -20 -9 -11 0 -20 4 -20
8 0 4 9 8 20 9 11 1 20 -2 20 -8z m-155 -39 c-11 -5 -33 -8 -50 -8 l-30 0 30
8 c17 4 39 8 50 8 l20 1 -20 -9z m4324 -34 c10 -12 8 -13 -9 -9 -25 7 -37 23
-17 23 8 0 20 -6 26 -14z m-4444 -6 c-3 -5 -11 -10 -16 -10 -6 0 -7 5 -4 10 3
6 11 10 16 10 6 0 7 -4 4 -10z m-35 -5 c0 -9 -59 -35 -80 -35 -25 0 -17 18 14
30 23 10 66 13 66 5z m4534 -20 c3 -8 1 -15 -3 -15 -5 0 -11 7 -15 15 -3 8 -1
15 3 15 5 0 11 -7 15 -15z m-2168 -13 c19 -15 44 -52 44 -65 0 -2 -25 1 -55 8
-31 8 -59 13 -63 12 -4 -1 -8 8 -10 21 -2 12 -10 22 -18 22 -8 0 -14 5 -14 10
0 17 93 11 116 -8z m2194 -22 c0 -5 -2 -10 -4 -10 -3 0 -8 5 -11 10 -3 6 -1
10 4 10 6 0 11 -4 11 -10z m-3695 -10 c3 -5 -1 -10 -10 -10 -9 0 -13 5 -10 10
3 6 8 10 10 10 2 0 7 -4 10 -10z m1207 -12 c-7 -7 -12 -8 -12 -2 0 14 12 26
19 19 2 -3 -1 -11 -7 -17z m-2082 -12 c0 -3 -4 -8 -10 -11 -5 -3 -10 -1 -10 4
0 6 5 11 10 11 6 0 10 -2 10 -4z m955 -46 c-3 -5 -13 -10 -21 -10 -8 0 -14 5
-14 10 0 6 9 10 21 10 11 0 17 -4 14 -10z m1370 -1 c10 -15 -1 -23 -20 -15 -9
3 -13 10 -10 16 8 13 22 13 30 -1z m87 -46 c15 -15 28 -33 28 -42 0 -20 30
-51 50 -51 17 0 60 35 60 49 0 5 11 6 25 3 15 -2 25 -11 25 -21 0 -20 -14 -43
-26 -42 -5 0 -9 -9 -9 -21 0 -14 -7 -22 -20 -23 -11 -1 -50 -20 -86 -42 -63
-38 -139 -63 -139 -46 0 16 16 29 47 42 57 23 50 68 -9 55 -33 -7 -100 5 -92
17 3 5 13 9 23 9 18 0 53 60 65 113 8 34 22 34 58 0z m1852 -37 c5 -46 4 -48
-10 -27 -10 14 -13 32 -9 52 9 39 12 35 19 -25z m381 24 c3 -5 1 -10 -4 -10
-6 0 -11 5 -11 10 0 6 2 10 4 10 3 0 8 -4 11 -10z m-2140 -51 c-10 -15 -25
-10 -19 6 4 8 10 12 15 9 5 -3 7 -10 4 -15z m-2395 -74 c-11 -16 -27 -32 -37
-33 -15 -3 -14 0 5 18 13 12 21 29 18 37 -9 22 3 35 19 20 11 -10 10 -17 -5
-42z m2075 25 c3 -5 1 -10 -4 -10 -6 0 -11 5 -11 10 0 6 2 10 4 10 3 0 8 -4
11 -10z m-231 -44 c-6 -15 -34 -30 -42 -22 -10 11 9 36 27 36 14 0 19 -5 15
-14z m-104 -16 c18 -12 2 -12 -25 0 -13 6 -15 9 -5 9 8 0 22 -4 30 -9z m685
-62 c-1 -61 -23 -158 -36 -158 -3 0 -7 -21 -8 -47 -1 -27 -3 -57 -4 -68 0 -11
-11 -31 -24 -45 -29 -32 -24 -46 15 -42 18 2 32 -1 32 -7 0 -6 -4 -11 -10 -11
-5 0 -10 -9 -10 -19 0 -11 -16 -37 -35 -58 -19 -21 -35 -43 -35 -50 0 -7 -6
-16 -14 -20 -13 -8 -112 -145 -131 -183 -5 -10 -18 -23 -29 -28 -19 -8 -19 -9
7 -27 15 -9 27 -24 27 -31 0 -8 4 -14 10 -14 5 0 9 3 8 8 -3 13 31 82 41 82
15 0 6 -47 -12 -68 -10 -10 -17 -23 -17 -29 0 -6 -7 -13 -15 -17 -8 -3 -15 -1
-15 5 0 18 -31 22 -49 5 -17 -16 -18 -15 -13 9 3 20 -4 33 -32 60 -33 30 -34
35 -19 44 14 7 18 22 17 63 0 29 2 55 6 58 4 3 10 16 14 30 3 14 3 19 0 13
-10 -23 -24 -13 -24 17 0 30 14 40 24 18 3 -7 4 1 0 17 -3 17 -19 42 -35 57
-16 15 -29 36 -29 47 0 12 -4 21 -10 21 -5 0 -10 9 -10 20 0 18 -3 19 -20 8
-24 -15 -29 -10 -36 34 -5 29 -1 40 20 61 15 15 30 27 34 27 18 0 82 52 82 67
0 9 -3 14 -6 10 -4 -3 -19 0 -35 8 -15 8 -37 15 -49 15 -21 0 -27 14 -10 25 6
4 56 8 111 11 55 2 108 8 119 14 15 8 22 5 37 -13 26 -33 39 -38 40 -17 1 10
-5 21 -13 24 -8 3 -14 13 -14 23 1 17 2 17 15 -1 12 -16 17 -17 30 -6 8 7 13
16 10 20 -3 4 2 11 11 14 9 4 14 13 10 21 -3 8 -1 15 3 15 5 0 11 -5 13 -11 2
-7 13 -9 26 -5 25 8 30 26 7 26 -22 0 -18 14 8 26 12 7 22 12 22 13 0 0 0 -27
0 -61z m-2261 16 c-13 -19 -23 -24 -40 -20 -16 4 -30 0 -44 -14 -27 -27 -31
-25 -15 8 9 17 28 31 52 39 60 18 66 17 47 -13z m1866 -14 c34 -30 28 -40 -13
-19 -22 12 -37 28 -37 42 0 13 15 6 50 -23z m440 -10 c0 -5 -4 -10 -10 -10 -5
0 -10 5 -10 10 0 6 5 10 10 10 6 0 10 -4 10 -10z m-2063 -37 c37 -33 50 -88
28 -117 -8 -10 -21 -16 -29 -13 -9 4 -17 -1 -21 -14 -4 -10 -10 -19 -15 -19
-20 0 -20 22 0 61 18 35 20 45 10 70 -7 16 -19 29 -26 29 -8 0 -14 7 -14 15 0
24 33 18 67 -12z m1717 15 c-3 -4 -14 -8 -25 -8 -11 0 -18 4 -14 9 3 6 14 9
25 8 10 -1 16 -5 14 -9z m-277 -64 c-1 -32 -8 -50 -19 -58 -21 -13 -35 -2 -21
16 6 7 13 30 17 51 10 52 26 46 23 -9z m-1509 -67 c4 -19 -23 -23 -48 -7 -13
9 -13 11 0 20 21 14 44 8 48 -13z m3397 13 c3 -5 1 -10 -4 -10 -6 0 -11 5 -11
10 0 6 2 10 4 10 3 0 8 -4 11 -10z m-1807 -28 c2 -12 8 -22 13 -22 16 0 9 -54
-10 -77 -37 -45 -45 -28 -24 50 5 20 -17 23 -36 5 -10 -11 -11 -10 -6 5 5 12
2 17 -11 17 -17 0 -17 1 -2 17 14 13 20 14 32 3 14 -11 16 -9 16 10 0 28 24
21 28 -8z m1796 -18 c23 -22 20 -32 -9 -30 -26 1 -32 10 -15 21 6 4 8 11 5 16
-9 14 2 11 19 -7z m-2923 -117 c-8 -8 -11 -7 -11 4 0 9 3 19 7 23 4 4 9 2 11
-4 3 -7 -1 -17 -7 -23z m1076 -19 c-3 -7 -5 -2 -5 12 0 14 2 19 5 13 2 -7 2
-19 0 -25z m44 -41 c-13 -13 -15 1 -4 30 7 17 8 17 11 -1 2 -10 -1 -23 -7 -29z
m-1724 -93 c-3 -3 -12 -4 -19 -1 -8 3 -5 6 6 6 11 1 17 -2 13 -5z m106 -81
c-7 -2 -19 -2 -25 0 -7 3 -2 5 12 5 14 0 19 -2 13 -5z m107 -60 c0 -5 -9 -19
-20 -33 -15 -19 -20 -21 -20 -8 0 27 11 48 26 48 8 0 14 -3 14 -7z m3170 -22
c0 -12 -20 -25 -27 -18 -7 7 6 27 18 27 5 0 9 -4 9 -9z m-1300 -127 c0 -8 -5
-12 -10 -9 -6 4 -8 11 -5 16 9 14 15 11 15 -7z m-1412 -50 c34 -16 40 -32 20
-52 -9 -9 -17 -7 -35 10 -13 12 -23 30 -23 40 0 22 -1 22 38 2z m2023 -16 c7
-40 -5 -108 -17 -100 -16 10 -25 82 -13 103 13 25 26 24 30 -3z m-157 -50 c8
-30 7 -38 -1 -38 -11 0 -32 48 -25 55 11 10 20 5 26 -17z m785 6 c2 -2 -10 -4
-27 -4 -17 0 -34 4 -37 10 -5 9 53 3 64 -6z m-2882 -15 c-9 -6 -17 -17 -17
-26 0 -14 -2 -15 -12 -4 -11 10 -8 16 11 32 13 11 27 17 30 14 3 -4 -2 -11
-12 -16z m2183 1 c0 -5 -5 -10 -11 -10 -5 0 -7 5 -4 10 3 6 8 10 11 10 2 0 4
-4 4 -10z m-2297 -22 c4 -10 8 -10 15 0 7 11 10 11 16 -3 3 -9 10 -13 16 -10
6 3 13 -1 16 -9 3 -9 10 -14 14 -11 5 3 11 -3 15 -14 5 -16 41 -33 78 -35 4
-1 7 -5 8 -11 2 -28 29 -33 124 -26 17 1 18 3 5 12 -12 9 -11 9 5 3 11 -4 28
-7 38 -8 9 0 17 -6 17 -13 0 -7 3 -12 8 -12 25 4 72 -2 72 -10 0 -5 -7 -25
-15 -46 -13 -30 -18 -35 -30 -25 -12 10 -15 9 -15 -5 0 -9 -9 -24 -20 -33 -10
-10 -21 -30 -23 -46 -4 -30 -30 -56 -58 -56 -9 0 -24 -11 -33 -25 -20 -30 -4
-33 24 -5 22 22 40 26 40 10 0 -6 -11 -15 -25 -20 -18 -7 -25 -17 -25 -35 0
-20 -7 -29 -31 -37 -16 -6 -28 -13 -24 -16 3 -3 -1 -12 -9 -21 -24 -29 -39
-90 -26 -106 13 -16 6 -19 -32 -16 -11 2 -18 -5 -18 -15 0 -14 2 -14 16 -3 14
11 15 9 12 -16 -4 -37 -80 -84 -104 -64 -15 13 -19 49 -5 49 5 0 7 8 4 18 -2
10 5 39 17 66 23 54 19 86 -11 86 -11 0 -32 6 -48 14 -15 8 -36 13 -47 12 -10
-2 -23 -1 -29 2 -15 9 -45 9 -39 0 3 -4 -16 -8 -43 -9 -37 -1 -42 -3 -23 -8
21 -7 16 -9 -28 -15 -44 -7 -52 -11 -47 -25 4 -10 -1 -8 -15 7 -22 23 -40 22
-40 -4 0 -8 -7 -14 -16 -14 -9 0 -12 -5 -8 -12 4 -6 3 -8 -3 -5 -15 9 -71 -21
-83 -44 -14 -25 -34 -25 -27 1 4 17 2 18 -15 9 -10 -6 -22 -17 -25 -25 -7 -19
-23 -18 -23 2 0 13 -5 12 -26 -5 -31 -24 -57 -27 -73 -8 -14 18 -69 10 -67
-10 1 -10 -10 -16 -32 -18 -35 -3 -43 10 -12 20 23 7 27 25 6 25 -7 0 -19 7
-27 16 -7 8 -21 13 -31 11 -21 -6 -28 27 -25 116 1 39 -3 61 -12 66 -10 7 -9
9 3 14 9 4 16 16 16 27 0 11 5 20 10 20 6 0 10 -7 10 -16 0 -8 5 -12 10 -9 6
3 10 17 10 31 0 14 7 27 18 31 9 4 20 11 25 17 5 8 9 7 15 -1 5 -8 20 -5 55
11 26 13 50 19 53 15 3 -5 19 0 35 11 16 12 29 18 29 14 0 -4 6 1 14 12 14 18
15 18 21 2 11 -27 23 -22 30 12 5 25 10 28 24 20 12 -6 22 -5 29 2 8 8 12 8
12 2 0 -21 73 -7 93 17 13 17 20 20 26 10 6 -9 11 -8 21 4 11 13 10 15 -4 9
-21 -8 -21 12 1 25 12 6 20 5 28 -5 8 -12 13 -11 27 6 10 11 13 20 8 20 -5 0
-2 9 7 19 9 11 22 17 29 14 9 -3 14 2 14 16 0 24 4 25 31 11 15 -8 19 -7 19 4
0 13 23 28 36 23 3 -1 10 6 15 16 12 20 25 22 32 5z m2408 -71 c-8 -8 -11 -7
-11 4 0 20 13 34 18 19 3 -7 -1 -17 -7 -23z m2719 -162 c-8 -23 -11 -75 -8
-136 2 -54 0 -99 -4 -99 -4 0 -8 35 -8 79 0 43 -3 98 -6 123 -5 34 -2 48 11
62 24 24 29 14 15 -29z m97 -5 c7 -19 12 -63 12 -98 1 -79 13 -102 50 -102 38
0 77 31 68 54 -6 15 -14 17 -47 11 -40 -7 -50 1 -28 23 28 28 108 -7 108 -48
0 -46 -101 -79 -143 -47 -10 7 -20 39 -27 81 -6 38 -17 84 -25 103 -20 47 -19
65 3 61 9 -2 22 -19 29 -38z m1118 21 c-27 -10 -78 -32 -111 -49 -56 -28 -74
-31 -74 -12 0 15 169 78 210 79 17 0 9 -6 -25 -18z m58 -51 c6 -24 -3 -32 -23
-20 -11 7 -11 11 -1 24 17 20 18 20 24 -4z m780 -22 c-7 -13 -23 -9 -30 8 -3
9 0 20 8 25 14 8 31 -18 22 -33z m-1283 -48 l0 -48 63 4 62 3 -60 -12 -60 -12
27 -28 c20 -19 37 -27 63 -27 22 0 34 -4 30 -10 -14 -23 -65 -10 -105 26 -36
33 -43 36 -66 25 -32 -14 -34 -14 -34 4 0 9 13 18 31 22 30 6 31 7 24 49 -3
24 -3 49 0 54 13 21 25 -3 25 -50z m1000 0 l0 -48 63 4 62 3 -60 -12 -60 -12
27 -28 c20 -19 37 -27 63 -27 22 0 34 -4 30 -10 -14 -23 -65 -10 -105 26 -36
33 -43 36 -66 25 -32 -14 -34 -14 -34 4 0 9 13 18 31 22 30 6 31 7 24 49 -3
24 -3 49 0 54 13 21 25 -3 25 -50z m-1877 -14 c26 -35 47 -69 47 -75 0 -16
-20 -13 -26 4 -4 8 -18 15 -34 15 -15 0 -47 -7 -70 -15 -51 -18 -63 -19 -58
-3 5 14 64 36 101 37 34 1 34 11 1 51 -26 30 -27 30 -46 13 -11 -10 -38 -44
-60 -75 -37 -56 -58 -72 -58 -45 0 30 113 157 140 157 9 0 37 -29 63 -64z
m1234 47 c-2 -10 -8 -27 -13 -37 -6 -16 -4 -18 10 -13 38 15 66 19 66 10 0 -5
-21 -16 -47 -24 -62 -18 -69 -43 -18 -64 35 -15 49 -14 133 11 9 3 4 -2 -11
-11 -15 -9 -49 -19 -75 -22 -42 -5 -52 -2 -80 22 -18 15 -39 24 -47 21 -8 -3
-15 -1 -15 5 0 5 7 12 15 16 9 3 27 27 41 54 23 47 52 68 41 32z m543 -44 c0
-6 -14 -15 -31 -21 l-31 -11 31 -28 c30 -27 44 -79 21 -79 -5 0 -7 7 -3 16 3
10 -7 27 -31 48 -20 19 -36 39 -36 45 0 14 61 52 72 45 4 -3 8 -10 8 -15z
m-1260 -3 c0 -16 -45 -66 -60 -66 -15 0 -12 11 7 32 22 24 12 31 -16 12 -32
-23 -23 -54 24 -81 33 -19 36 -23 17 -23 -26 0 -63 17 -74 34 -15 22 -7 48 21
77 31 30 81 40 81 15z m1610 -5 c0 -11 -12 -29 -26 -40 -34 -27 -53 -27 -29
-1 20 22 16 34 -8 24 -42 -16 -28 -60 27 -85 38 -17 39 -19 13 -19 -85 0 -110
79 -39 123 37 22 62 22 62 -2z m-704 -57 c-10 -26 -26 -4 -26 34 l1 37 15 -28
c9 -16 13 -35 10 -43z m779 -5 c-12 -18 -25 3 -24 39 l1 37 14 -33 c8 -18 12
-37 9 -43z m-708 41 c6 -24 21 -25 47 -5 31 23 83 19 111 -10 35 -34 31 -55
-3 -22 -35 33 -56 34 -107 2 -22 -13 -43 -25 -46 -25 -8 0 -29 47 -29 65 0 22
21 18 27 -5z m778 0 c7 -24 23 -25 49 -5 28 21 82 19 106 -5 28 -28 25 -48 -3
-22 -30 28 -52 28 -107 -4 -42 -24 -45 -24 -57 -8 -15 21 -17 64 -4 64 5 0 13
-9 16 -20z m-1689 -16 c1 -10 2 -22 3 -26 0 -4 30 7 65 23 65 31 125 36 133
12 3 -8 -8 -10 -35 -6 -32 4 -52 -1 -102 -28 -48 -25 -66 -30 -78 -22 -19 12
-27 37 -18 59 8 21 31 12 32 -12z m-3060 -62 c10 2 19 -3 20 -9 1 -7 2 -18 3
-24 2 -19 21 2 22 24 0 12 3 16 6 9 2 -6 9 -10 14 -6 5 3 9 1 9 -5 0 -5 3 -18
6 -28 4 -14 4 -15 -4 -4 -14 20 -38 -22 -46 -81 -4 -25 -14 -52 -22 -59 -8 -6
-12 -20 -9 -29 6 -20 -23 -49 -33 -33 -7 11 -61 11 -79 0 -7 -4 -14 -3 -18 2
-3 6 -37 13 -75 17 -61 6 -70 9 -70 27 0 17 -2 18 -17 6 -9 -8 -14 -9 -10 -3
4 7 0 14 -8 18 -10 4 -15 -1 -15 -14 0 -14 -7 -20 -23 -20 -30 0 -40 10 -26
26 7 8 6 14 -2 19 -6 4 -15 1 -20 -6 -8 -11 -12 -10 -24 5 -8 11 -15 26 -15
34 0 8 -7 20 -17 27 -26 19 -6 34 47 33 27 0 53 3 59 7 17 10 150 33 156 26 3
-3 40 -6 81 -7 l75 -2 -1 27 c-3 39 -1 47 9 33 4 -8 17 -12 27 -10z m-2816
-88 c0 -8 -4 -12 -10 -9 -5 3 -10 10 -10 16 0 5 5 9 10 9 6 0 10 -7 10 -16z
m3136 -39 c26 -14 55 -25 65 -25 10 0 26 -11 35 -25 9 -14 22 -25 29 -25 8 0
21 -7 29 -16 9 -9 24 -13 35 -9 16 5 25 -5 51 -60 25 -53 29 -69 20 -81 -16
-18 -40 -18 -40 0 0 7 -12 21 -26 31 -21 13 -23 19 -13 31 19 23 -19 68 -59
72 -39 4 -43 -20 -10 -55 26 -27 5 -32 -24 -6 -13 11 -22 14 -26 6 -4 -5 -17
-13 -29 -17 -13 -4 -23 -13 -23 -21 0 -16 -27 -28 -35 -15 -3 5 -3 20 1 33 3
14 1 28 -5 32 -13 7 -45 -60 -38 -80 4 -8 -5 -7 -29 4 -38 17 -48 35 -34 59 5
10 10 12 10 5 0 -15 30 -18 30 -3 0 6 -9 19 -19 29 -22 22 -18 31 15 31 21 0
44 25 44 47 0 13 -69 47 -77 39 -5 -4 0 -12 10 -17 23 -14 22 -39 -3 -39 -12
0 -30 -9 -42 -20 -12 -11 -16 -20 -10 -20 7 0 12 -5 12 -12 0 -6 -11 -1 -25
12 -14 13 -25 28 -25 34 0 6 18 31 40 55 22 25 40 49 40 54 0 16 75 -1 126
-28z m-2820 -231 c3 -16 7 -37 10 -46 3 -10 1 -18 -5 -18 -6 0 -11 7 -11 15 0
8 -7 15 -15 15 -18 0 -20 -17 -2 -23 6 -2 9 -7 6 -11 -9 -9 -38 -9 -68 0 -21
6 -23 5 -16 -17 18 -63 18 -66 -4 -41 -23 26 -34 28 -51 7 -7 -9 -19 -14 -26
-11 -8 3 -19 -4 -25 -16 -9 -17 -9 -23 0 -26 6 -2 11 -10 11 -18 0 -18 24 -18
42 -1 17 17 85 35 123 33 23 -1 31 -6 33 -24 3 -20 0 -22 -32 -17 -42 5 -48
-11 -10 -25 22 -9 24 -13 14 -25 -11 -14 -15 -14 -31 1 -10 9 -25 14 -34 11
-19 -8 -20 -37 0 -37 22 0 18 -12 -14 -42 -29 -28 -47 -68 -30 -68 5 0 9 6 10
13 0 6 4 2 9 -10 5 -13 16 -23 24 -23 10 0 13 -6 10 -15 -5 -11 -10 -13 -19
-5 -6 5 -15 7 -18 3 -4 -3 -14 0 -22 7 -11 9 -19 10 -27 2 -12 -12 -1 -35 13
-27 5 4 9 1 9 -4 0 -6 7 -11 15 -11 8 0 15 -7 15 -16 0 -14 -3 -14 -15 -4 -8
7 -15 9 -15 4 0 -4 -9 2 -20 14 -11 12 -20 26 -20 32 0 6 -7 13 -15 16 -18 7
-20 31 -2 37 6 2 9 8 5 12 -4 4 -14 3 -21 -3 -10 -9 -17 -6 -27 8 -18 25 -30
25 -30 1 0 -11 9 -21 21 -24 28 -7 19 -33 -10 -29 -12 2 -29 -2 -37 -8 -11
-10 -14 -9 -14 3 0 8 -7 18 -16 21 -14 6 -15 4 -4 -9 11 -14 10 -19 -8 -37
l-21 -21 -7 27 c-4 18 -1 32 9 44 17 19 17 84 1 89 -7 2 -14 -5 -17 -17 -3
-11 -10 -20 -17 -20 -6 0 -8 5 -4 12 4 6 3 8 -4 5 -5 -4 -8 -15 -5 -25 6 -23
-40 -66 -72 -67 -13 -1 -33 -12 -44 -26 l-19 -24 -7 28 c-4 15 -14 27 -21 27
-20 0 -30 -30 -13 -41 15 -10 7 -12 -31 -9 l-25 2 24 -21 c28 -25 35 -26 50
-7 15 18 49 27 57 15 3 -5 11 -6 17 -2 19 12 47 11 47 -2 0 -19 -12 -26 -27
-13 -20 16 -38 -4 -25 -27 6 -12 11 -14 16 -6 12 18 26 12 27 -11 l0 -23 11
23 c11 22 12 22 24 -15 7 -20 11 -39 9 -42 -3 -2 -5 0 -5 6 0 17 -53 12 -68
-6 -11 -14 -12 -13 -7 7 5 16 2 22 -9 22 -8 0 -19 7 -24 16 -8 14 -10 14 -21
0 -19 -23 -33 -20 -26 5 5 15 3 20 -6 17 -8 -3 -16 -20 -19 -39 -3 -22 -8 -30
-13 -21 -5 7 -6 22 -2 35 6 21 5 21 -9 3 -8 -10 -26 -24 -39 -31 -23 -12 -25
-11 -30 11 -3 17 2 29 17 40 18 12 19 16 6 24 -8 5 -21 10 -27 10 -16 0 -17
16 -2 26 6 3 15 1 19 -6 6 -9 9 -9 15 0 4 6 4 14 1 17 -3 3 -1 12 5 20 9 10 8
13 -5 13 -9 0 -16 -4 -16 -10 0 -5 -9 -10 -20 -10 -27 0 -25 6 9 41 17 17 32
25 36 19 11 -19 35 -10 41 15 3 14 11 25 17 25 6 0 25 14 43 31 22 22 52 35
105 48 43 11 78 15 84 10 12 -12 45 -11 45 1 0 6 -10 10 -22 10 -12 0 -18 3
-14 7 3 4 -5 12 -18 17 -24 11 -24 12 -7 31 29 34 60 48 77 34 18 -15 29 -5
29 29 0 17 8 30 21 37 12 6 28 16 35 22 31 24 91 53 100 47 6 -3 19 2 30 12
28 25 63 42 72 34 4 -4 10 -20 13 -36z m2905 -33 c-15 -10 26 -89 50 -96 17
-6 28 -35 12 -35 -20 0 -73 54 -73 74 0 13 -7 26 -15 30 -13 5 -13 8 2 24 10
10 22 17 27 14 4 -2 3 -8 -3 -11z m99 -1 c0 -5 -7 -10 -15 -10 -8 0 -15 5 -15
10 0 6 7 10 15 10 8 0 15 -4 15 -10z m-3893 -62 c-3 -7 -5 -2 -5 12 0 14 2 19
5 13 2 -7 2 -19 0 -25z m928 -47 c-2 -2 -11 3 -19 12 -8 8 -12 17 -9 21 3 3
12 -2 19 -12 7 -9 11 -19 9 -21z m3055 -82 c0 -6 -4 -7 -10 -4 -5 3 -10 11
-10 16 0 6 5 7 10 4 6 -3 10 -11 10 -16z m-3500 1 c0 -5 -4 -10 -9 -10 -6 0
-13 5 -16 10 -3 6 1 10 9 10 9 0 16 -4 16 -10z m366 -80 c17 0 17 -2 3 -34 -9
-20 -9 -29 1 -41 7 -8 10 -18 6 -22 -8 -8 -35 27 -36 46 0 8 -7 11 -19 8 -18
-4 -18 -3 2 31 12 19 23 30 25 24 2 -7 10 -12 18 -12z m-322 -55 c-4 -8 -10
-15 -15 -15 -5 0 -9 7 -9 15 0 8 7 15 15 15 9 0 12 -6 9 -15z m96 -81 c0 -8
-5 -12 -10 -9 -6 4 -8 11 -5 16 9 14 15 11 15 -7z m40 -8 c0 -8 -4 -18 -10
-21 -5 -3 -10 3 -10 14 0 12 5 21 10 21 6 0 10 -6 10 -14z m176 -13 c-10 -10
-19 5 -10 18 6 11 8 11 12 0 2 -7 1 -15 -2 -18z m-155 -56 c-8 -8 -11 -4 -11
14 0 33 14 47 18 19 2 -12 -1 -27 -7 -33z m-110 13 c5 0 9 5 9 10 0 6 5 10 10
10 6 0 10 -9 10 -21 0 -15 4 -19 16 -15 12 5 15 2 10 -10 -3 -8 -6 -24 -6 -35
0 -10 -5 -19 -10 -19 -6 0 -8 11 -4 25 5 22 3 25 -20 25 -14 0 -26 3 -26 8 0
4 -2 16 -4 27 -2 11 -1 14 1 8 3 -7 9 -13 14 -13z m133 -56 c-13 -37 -24 -75
-24 -86 0 -18 -1 -18 -24 -1 -13 10 -19 19 -12 21 14 3 56 80 56 103 0 17 9
29 21 29 4 0 -4 -30 -17 -66z m50 41 c-4 -8 -8 -15 -10 -15 -2 0 -4 7 -4 15 0
8 4 15 10 15 5 0 7 -7 4 -15z m37 -48 c-8 -8 -11 -7 -11 4 0 20 13 34 18 19 3
-7 -1 -17 -7 -23z m-567 -76 c-9 -34 -13 -41 -25 -41 -6 0 -7 9 -4 21 4 13 2
25 -5 29 -19 11 -3 29 20 23 16 -4 19 -11 14 -32z m82 4 c-4 -14 -11 -23 -16
-20 -14 9 -12 43 3 48 18 6 20 1 13 -28z m411 13 c-3 -8 -6 -5 -6 6 -1 11 2
17 5 13 3 -3 4 -12 1 -19z m90 0 c-3 -8 -6 -5 -6 6 -1 11 2 17 5 13 3 -3 4
-12 1 -19z m-847 -8 c0 -5 -4 -10 -10 -10 -5 0 -10 5 -10 10 0 6 5 10 10 10 6
0 10 -4 10 -10z m430 0 c0 -5 -5 -10 -11 -10 -5 0 -7 5 -4 10 3 6 8 10 11 10
2 0 4 -4 4 -10z m-280 -9 c0 -14 43 -21 57 -9 10 8 13 7 13 -5 0 -9 -4 -19
-10 -22 -5 -3 -7 -18 -4 -33 8 -45 -9 -85 -40 -93 -22 -6 -27 -5 -24 9 2 9 10
17 17 17 8 0 17 9 22 20 13 34 10 43 -11 38 -11 -3 -20 0 -20 6 0 6 9 11 20
11 11 0 20 7 20 15 0 9 -6 12 -15 9 -8 -4 -15 -1 -15 5 0 6 -7 8 -15 5 -8 -4
-15 -1 -15 6 0 10 -3 10 -15 0 -12 -10 -15 -10 -15 3 0 13 13 21 43 26 4 0 7
-3 7 -8z m780 -27 c0 -17 -26 -19 -36 -3 -7 12 15 31 28 23 4 -3 8 -12 8 -20z
m-640 -16 c0 -23 -3 -29 -9 -19 -8 12 -4 51 5 51 2 0 4 -15 4 -32z m180 11 c0
-5 -4 -9 -10 -9 -5 0 -10 7 -10 16 0 8 5 12 10 9 6 -3 10 -10 10 -16z m380 17
c0 -3 -4 -8 -10 -11 -5 -3 -10 -1 -10 4 0 6 5 11 10 11 6 0 10 -2 10 -4z
m-333 -31 c2 -6 -6 -16 -17 -23 -18 -11 -20 -10 -20 14 0 18 5 25 17 22 9 -2
18 -8 20 -13z m2493 -5 c0 -5 -4 -10 -10 -10 -5 0 -10 5 -10 10 0 6 5 10 10
10 6 0 10 -4 10 -10z m-2354 -25 c-5 -18 -2 -27 10 -32 13 -5 13 -7 2 -14 -21
-14 -26 -11 -33 21 -7 31 -1 50 17 50 6 0 8 -10 4 -25z m130 -23 c-11 -10 -15
4 -8 28 l7 25 3 -23 c2 -13 1 -26 -2 -30z m-340 1 c-11 -11 -17 4 -9 23 7 18
8 18 11 1 2 -10 1 -21 -2 -24z m254 11 c0 -8 -5 -12 -10 -9 -6 4 -8 11 -5 16
9 14 15 11 15 -7z m-170 -4 c0 -5 -4 -10 -10 -10 -5 0 -10 5 -10 10 0 6 5 10
10 10 6 0 10 -4 10 -10z m30 -12 c0 -16 -3 -19 -11 -11 -6 6 -8 16 -5 22 11
17 16 13 16 -11z m283 -4 c9 -4 17 -13 17 -21 0 -12 -3 -13 -13 -4 -8 6 -17 8
-21 4 -4 -4 -11 -1 -16 7 -14 21 -12 33 3 26 6 -3 20 -9 30 -12z m-73 -20 c0
-11 -40 -27 -48 -19 -3 2 -2 10 1 17 6 17 47 18 47 2z m-660 -4 c0 -5 -5 -10
-11 -10 -5 0 -7 5 -4 10 3 6 8 10 11 10 2 0 4 -4 4 -10z m-30 -21 c0 -5 -4 -9
-10 -9 -5 0 -10 7 -10 16 0 8 5 12 10 9 6 -3 10 -10 10 -16z m900 12 c0 -6 -4
-13 -10 -16 -5 -3 -10 1 -10 9 0 9 5 16 10 16 6 0 10 -4 10 -9z m-950 -16 c-7
-9 -15 -13 -17 -11 -7 7 7 26 19 26 6 0 6 -6 -2 -15z m218 -13 c9 2 17 -3 16
-9 -1 -7 -2 -27 -2 -44 -1 -19 -6 -28 -13 -23 -6 3 -8 17 -5 30 5 17 2 26 -9
30 -8 4 -14 16 -14 28 1 17 2 18 6 3 2 -10 12 -16 21 -15z m266 3 c-4 -8 -8
-15 -10 -15 -2 0 -4 7 -4 15 0 8 4 15 10 15 5 0 7 -7 4 -15z m344 4 c-2 -6 -7
-10 -11 -10 -4 1 -14 1 -22 1 -8 0 -15 5 -15 10 0 6 12 10 26 10 14 0 24 -5
22 -11z m-748 -24 c0 -22 -8 -29 -31 -27 -3 1 -4 -14 -1 -31 2 -23 1 -28 -6
-18 -5 7 -15 10 -21 7 -17 -11 -23 17 -12 47 7 18 15 25 26 21 8 -4 17 1 21
10 9 24 24 19 24 -9z m49 -17 c1 24 25 27 27 4 1 -7 2 -16 3 -21 0 -5 9 -11
19 -14 16 -4 16 -5 -2 -12 -11 -5 -26 -3 -38 4 -15 9 -20 9 -24 -4 -11 -26
-25 -16 -21 14 8 47 20 60 28 31 7 -25 7 -25 8 -2z m254 7 c8 0 10 -11 5 -24
-2 -5 -13 -12 -26 -15 -17 -6 -24 -3 -31 16 -6 17 -5 24 8 29 9 4 21 4 26 0 6
-3 13 -6 18 -6z m-400 -50 c-8 -22 -22 -18 -16 5 3 11 9 17 14 15 4 -3 6 -12
2 -20z m617 15 c0 -5 -2 -10 -4 -10 -3 0 -8 5 -11 10 -3 6 -1 10 4 10 6 0 11
-4 11 -10z m-683 -56 c8 3 13 -2 13 -15 0 -17 3 -18 20 -9 16 9 20 8 20 -6 0
-14 -7 -15 -39 -10 -37 6 -40 4 -46 -22 -5 -24 -10 -28 -38 -27 -18 1 -39 5
-45 9 -17 10 -15 58 4 92 l15 29 -6 -35 -7 -35 38 40 38 40 10 -28 c6 -16 15
-26 23 -23z m553 36 c0 -12 -28 -25 -36 -17 -9 9 6 27 22 27 8 0 14 -5 14 -10z
m-37 -31 c18 -20 18 -21 -5 -14 -29 9 -31 11 -23 24 8 14 8 14 28 -10z m-413
-15 c0 -8 -4 -14 -8 -14 -4 0 -8 9 -8 19 0 11 4 17 8 15 4 -3 8 -12 8 -20z
m730 10 c0 -8 -4 -12 -10 -9 -5 3 -10 10 -10 16 0 5 5 9 10 9 6 0 10 -7 10
-16z m-563 -16 c-3 -8 -6 -5 -6 6 -1 11 2 17 5 13 3 -3 4 -12 1 -19z m353 -8
c0 -5 -4 -10 -10 -10 -5 0 -10 5 -10 10 0 6 5 10 10 10 6 0 10 -4 10 -10z
m-240 -61 c0 -18 -2 -19 -30 -4 -16 9 -30 19 -30 24 0 4 14 6 30 3 21 -3 30
-10 30 -23z m525 12 c3 -5 1 -12 -5 -16 -5 -3 -10 1 -10 9 0 18 6 21 15 7z
m-877 -18 c2 -8 -6 -13 -22 -13 -25 0 -33 10 -19 24 10 10 36 3 41 -11z m422
-3 c0 -5 -4 -10 -10 -10 -5 0 -10 5 -10 10 0 6 5 10 10 10 6 0 10 -4 10 -10z
m283 -20 c-6 -23 -16 -25 -32 -7 -13 16 -5 27 20 27 12 0 16 -6 12 -20z m-458
-19 c-3 -12 -11 -19 -16 -16 -5 4 -3 14 3 25 15 24 22 19 13 -9z m-205 9 c0
-5 -2 -10 -4 -10 -3 0 -8 5 -11 10 -3 6 -1 10 4 10 6 0 11 -4 11 -10z"/>
<path d="M2054 5559 c-3 -6 -17 -8 -29 -5 -13 3 -30 3 -39 0 -12 -5 -13 -10
-3 -27 7 -12 13 -23 14 -25 1 -2 13 4 27 13 24 16 26 16 26 1 0 -16 17 -20 43
-10 13 5 13 9 0 35 -15 30 -27 36 -39 18z"/>
<path d="M2170 5540 c0 -5 7 -10 16 -10 8 0 12 5 9 10 -3 6 -10 10 -16 10 -5
0 -9 -4 -9 -10z"/>
<path d="M1935 5530 c3 -5 11 -10 16 -10 6 0 7 5 4 10 -3 6 -11 10 -16 10 -6
0 -7 -4 -4 -10z"/>
<path d="M1771 5491 c-67 -50 -50 -65 30 -28 19 9 50 20 69 25 31 7 46 27 21
27 -5 0 -13 3 -17 8 -17 16 -53 5 -103 -32z"/>
<path d="M2853 5443 c-36 -7 -27 -23 13 -23 23 0 34 4 32 12 -5 14 -15 17 -45
11z"/>
<path d="M1662 5397 c-7 -8 -9 -16 -6 -19 9 -10 45 4 41 15 -5 17 -23 19 -35
4z"/>
<path d="M1715 5389 c-11 -17 -2 -18 30 -4 l30 13 -27 1 c-15 1 -30 -4 -33
-10z"/>
<path d="M1845 5390 c-3 -5 3 -10 14 -10 12 0 21 5 21 10 0 6 -6 10 -14 10 -8
0 -18 -4 -21 -10z"/>
<path d="M1652 5338 c6 -18 28 -21 28 -4 0 9 -7 16 -16 16 -9 0 -14 -5 -12
-12z"/>
<path d="M1728 5326 c-15 -8 -37 -24 -49 -35 -13 -12 -26 -21 -29 -21 -4 0
-18 -9 -31 -21 -13 -12 -35 -30 -48 -40 -19 -15 -22 -22 -12 -32 17 -17 65 12
69 41 2 14 10 22 23 22 11 0 25 5 32 10 7 6 37 23 67 38 30 15 54 32 53 37 -4
16 -46 17 -75 1z"/>
<path d="M1603 5305 c-3 -9 -3 -19 1 -22 7 -7 36 16 36 28 0 15 -30 10 -37 -6z"/>
<path d="M3255 5240 c-16 -18 -16 -20 0 -37 16 -15 75 -31 75 -20 0 14 -33 66
-44 70 -8 3 -22 -3 -31 -13z"/>
<path d="M1483 5137 c-37 -11 -43 -32 -12 -40 21 -6 69 10 69 23 0 19 -27 26
-57 17z"/>
<path d="M1560 5080 c-13 -8 -12 -10 3 -10 9 0 17 5 17 10 0 12 -1 12 -20 0z"/>
<path d="M1412 5037 c-7 -8 -30 -22 -52 -32 -22 -10 -40 -22 -40 -26 0 -4 23
-7 51 -7 44 1 50 4 46 20 -4 13 3 20 26 26 18 5 31 12 30 18 -4 15 -49 16 -61
1z"/>
<path d="M3848 4933 c7 -3 16 -2 19 1 4 3 -2 6 -13 5 -11 0 -14 -3 -6 -6z"/>
<path d="M1195 4710 c-3 -5 1 -10 9 -10 8 0 18 5 21 10 3 6 -1 10 -9 10 -8 0
-18 -4 -21 -10z"/>
<path d="M4090 4550 c0 -13 28 -25 38 -16 3 4 0 11 -8 16 -20 13 -30 12 -30 0z"/>
<path d="M1128 4466 c-10 -7 -18 -19 -18 -25 0 -21 32 -7 41 17 9 25 2 28 -23
8z"/>
<path d="M4300 4135 c7 -9 15 -13 17 -11 7 7 -7 26 -19 26 -6 0 -6 -6 2 -15z"/>
<path d="M1504 4103 c-3 -10 -10 -26 -15 -36 -13 -24 -3 -34 19 -21 19 12 29
74 12 74 -6 0 -13 -8 -16 -17z"/>
<path d="M1555 4074 c-19 -46 -19 -60 1 -68 8 -3 12 -10 9 -16 -4 -6 -10 -8
-14 -6 -4 3 -7 -7 -6 -22 0 -26 2 -27 45 -24 51 4 70 16 70 42 0 20 44 60 66
60 7 0 19 10 25 22 28 51 -73 64 -112 13 -23 -28 -45 -25 -29 5 14 27 13 30
-15 30 -19 0 -28 -8 -40 -36z m62 -56 c-3 -8 -6 -5 -6 6 -1 11 2 17 5 13 3 -3
4 -12 1 -19z"/>
<path d="M4360 4080 c0 -11 8 -24 18 -27 9 -4 22 -14 29 -22 11 -14 12 -14 13
-1 0 14 -44 70 -55 70 -3 0 -5 -9 -5 -20z"/>
<path d="M1455 4009 c-4 -6 -5 -13 -2 -16 7 -7 27 6 27 18 0 12 -17 12 -25 -2z"/>
<path d="M2573 4003 c-9 -7 -14 -16 -10 -19 9 -9 80 10 84 22 5 15 -52 12 -74
-3z"/>
<path d="M1764 3974 c-17 -14 -17 -15 -1 -10 10 3 23 6 28 6 5 0 9 5 9 10 0
14 -13 12 -36 -6z"/>
<path d="M958 3959 c-15 -6 -29 -20 -33 -36 -8 -34 -4 -36 35 -20 31 14 31 14
9 21 l-24 7 28 15 c43 23 35 31 -15 13z"/>
<path d="M1910 3890 c0 -5 4 -10 9 -10 6 0 13 5 16 10 3 6 -1 10 -9 10 -9 0
-16 -4 -16 -10z"/>
<path d="M1475 3880 c-3 -5 -1 -10 4 -10 6 0 11 5 11 10 0 6 -2 10 -4 10 -3 0
-8 -4 -11 -10z"/>
<path d="M924 3855 c-19 -15 -19 -15 1 -8 18 6 18 5 6 -10 -18 -23 2 -22 22 1
27 30 5 43 -29 17z"/>
<path d="M4487 3838 c-6 -18 14 -71 23 -61 10 10 1 73 -10 73 -5 0 -10 -6 -13
-12z"/>
<path d="M2605 3811 c3 -5 1 -12 -5 -16 -16 -10 -12 -25 5 -19 17 7 21 44 4
44 -5 0 -8 -4 -4 -9z"/>
<path d="M2642 3798 c-15 -15 -16 -38 -1 -38 6 0 9 7 5 15 -4 10 1 15 14 15
11 0 20 5 20 10 0 14 -23 13 -38 -2z"/>
<path d="M1020 3779 c-13 -24 -8 -34 15 -26 16 7 21 47 5 47 -5 0 -14 -9 -20
-21z"/>
<path d="M1655 3750 c-3 -5 1 -10 9 -10 9 0 16 5 16 10 0 6 -4 10 -9 10 -6 0
-13 -4 -16 -10z"/>
<path d="M1609 3710 c-17 -13 -19 -19 -9 -19 16 0 50 22 50 33 0 12 -18 6 -41
-14z"/>
<path d="M1690 3719 c0 -5 5 -7 10 -4 6 3 10 8 10 11 0 2 -4 4 -10 4 -5 0 -10
-5 -10 -11z"/>
<path d="M1851 3716 c-7 -8 -8 -17 -3 -19 4 -3 13 3 20 14 14 22 0 26 -17 5z"/>
<path d="M1008 3587 c-2 -16 -11 -23 -31 -25 -21 -3 -27 -8 -25 -22 2 -11 -12
-34 -31 -54 -32 -33 -33 -36 -13 -36 25 0 112 81 112 103 0 8 7 20 15 27 20
17 19 25 -4 27 -13 1 -21 -6 -23 -20z"/>
<path d="M1420 3540 c0 -5 10 -10 23 -10 18 0 19 2 7 10 -19 13 -30 13 -30 0z"/>
<path d="M1065 3509 c-4 -6 -4 -13 -1 -16 8 -8 36 5 36 17 0 13 -27 13 -35 -1z"/>
<path d="M1210 3444 c0 -8 9 -14 20 -14 11 0 20 4 20 9 0 5 -9 11 -20 14 -13
3 -20 0 -20 -9z"/>
<path d="M1480 3450 c-21 -6 -22 -8 -8 -14 21 -10 52 -4 51 9 -2 13 -13 14
-43 5z"/>
<path d="M958 3436 c-10 -7 -18 -17 -18 -22 -1 -11 -46 -45 -63 -48 -38 -6
-51 -43 -14 -41 35 2 57 16 57 35 0 21 15 33 44 35 10 1 25 10 32 20 24 32 -4
47 -38 21z"/>
<path d="M1383 3434 c-18 -9 -39 -27 -48 -40 l-16 -25 48 4 c26 3 59 9 73 15
l25 10 -28 7 c-20 5 -25 11 -18 18 13 13 14 27 4 27 -5 0 -22 -8 -40 -16z"/>
<path d="M3632 3423 c-18 -9 -37 -24 -43 -34 -7 -13 -21 -19 -44 -19 -27 0
-35 -4 -35 -18 0 -10 6 -24 12 -30 10 -10 10 -15 -2 -22 -11 -7 -18 -3 -27 13
l-13 22 -6 -22 c-3 -13 -10 -23 -15 -23 -5 0 -7 -21 -4 -46 4 -39 2 -47 -14
-51 -13 -3 -17 -11 -13 -25 3 -15 1 -19 -6 -14 -19 11 -34 -40 -20 -67 6 -12
14 -29 18 -37 4 -8 20 -15 36 -15 25 0 30 -4 34 -34 3 -19 11 -36 19 -39 9 -3
11 2 6 17 -10 31 2 25 21 -10 14 -28 18 -30 31 -17 12 13 22 13 71 2 l57 -14
28 30 c15 17 27 37 27 45 0 8 4 15 9 15 12 0 21 -26 21 -61 0 -27 3 -30 23
-23 55 18 61 14 117 -88 19 -36 23 -38 70 -38 57 0 64 12 20 30 -17 7 -37 22
-45 34 -17 23 -20 40 -6 32 5 -3 14 1 20 8 10 11 9 21 -2 43 -8 15 -12 34 -9
41 5 16 -12 53 -46 100 -25 35 -24 62 4 62 23 0 52 -39 59 -83 9 -48 21 -40
30 20 10 62 6 106 -10 115 -7 4 -10 18 -8 31 5 23 -16 76 -41 104 -6 7 -17 19
-24 28 -8 9 -30 15 -60 15 -28 0 -57 7 -72 17 -17 12 -25 13 -28 5 -5 -17 -39
-15 -46 3 -7 20 -52 19 -94 -2z m-102 -232 c0 -12 -20 -25 -27 -18 -7 7 6 27
18 27 5 0 9 -4 9 -9z m286 -37 c62 -41 81 -75 49 -88 -21 -8 -45 3 -45 20 0 8
-8 14 -17 14 -24 0 -91 24 -104 37 -8 8 -4 16 12 27 33 23 60 20 105 -10z
m-282 -19 c-7 -16 -51 -32 -61 -21 -4 4 46 32 64 36 1 0 0 -7 -3 -15z m166
-66 c0 -5 -4 -9 -10 -9 -5 0 -10 7 -10 16 0 8 5 12 10 9 6 -3 10 -10 10 -16z"/>
<path d="M1136 3397 c3 -9 -1 -26 -9 -37 -13 -19 -13 -25 0 -51 20 -40 25 -37
22 14 -2 28 1 41 9 40 7 -2 12 7 12 19 0 12 -3 18 -7 15 -3 -4 -12 -2 -20 5
-11 8 -12 7 -7 -5z"/>
<path d="M4620 3400 c0 -5 5 -10 11 -10 5 0 7 5 4 10 -3 6 -8 10 -11 10 -2 0
-4 -4 -4 -10z"/>
<path d="M1092 3225 c8 -64 22 -77 30 -25 1 14 10 30 18 37 18 14 14 18 -24
27 l-29 7 5 -46z"/>
<path d="M4323 3163 c9 -9 20 -13 24 -9 4 4 1 11 -7 16 -25 16 -35 11 -17 -7z"/>
<path d="M813 3130 c-27 -11 -30 -30 -5 -30 19 0 42 18 42 32 0 10 -9 9 -37
-2z"/>
<path d="M4383 3092 c7 -15 22 -41 34 -57 21 -29 22 -29 23 -7 0 40 -27 92
-49 92 -18 0 -19 -3 -8 -28z"/>
<path d="M3985 3030 c3 -5 8 -10 11 -10 2 0 4 5 4 10 0 6 -5 10 -11 10 -5 0
-7 -4 -4 -10z"/>
<path d="M1297 3014 c-15 -8 -31 -12 -36 -10 -10 6 -25 -24 -16 -32 5 -6 38
10 69 33 27 21 16 26 -17 9z"/>
<path d="M3820 2913 c-23 -13 -111 -13 -197 -1 -37 5 -30 -13 12 -30 27 -11
69 -16 128 -16 67 0 87 -3 87 -14 0 -16 22 -11 28 6 2 7 -3 12 -12 12 -18 0
-21 11 -6 26 20 20 -12 32 -40 17z"/>
<path d="M4407 2897 c-6 -16 18 -57 34 -57 13 0 2 40 -16 58 -10 11 -13 11
-18 -1z"/>
<path d="M3590 2790 c0 -5 6 -10 13 -10 7 0 17 -10 22 -22 6 -14 21 -23 40
-25 17 -2 50 -10 75 -17 64 -20 103 -23 107 -8 3 6 0 12 -7 12 -6 0 -30 9 -53
21 -83 40 -197 69 -197 49z"/>
<path d="M3860 2699 c0 -6 23 -33 50 -61 28 -28 50 -46 50 -41 0 5 -12 20 -26
34 -14 13 -32 36 -40 52 -15 27 -34 37 -34 16z"/>
<path d="M1226 2651 c-4 -7 -5 -15 -2 -18 9 -9 19 4 14 18 -4 11 -6 11 -12 0z"/>
<path d="M1030 2597 c-7 -17 -15 -35 -18 -39 -2 -5 3 -8 12 -8 9 0 16 -7 16
-15 0 -8 7 -15 15 -15 12 0 14 10 11 46 -5 60 -18 72 -36 31z"/>
<path d="M3590 2421 c0 -7 12 -52 26 -100 29 -96 78 -190 124 -238 16 -18 30
-39 30 -47 0 -9 4 -16 9 -16 5 0 16 -3 25 -6 9 -4 16 -1 16 6 0 6 -9 14 -19
17 -16 4 -18 8 -9 23 9 14 7 23 -10 45 -12 15 -22 34 -22 41 0 18 -70 147 -96
177 -12 14 -25 33 -28 43 -9 28 -46 71 -46 55z"/>
<path d="M1051 2319 c-5 -15 -20 -34 -33 -43 -12 -9 -17 -16 -10 -16 6 0 12
-11 12 -25 0 -15 7 -28 18 -32 9 -4 20 -11 24 -17 5 -8 11 -7 19 1 8 8 6 16
-11 33 -25 25 -21 33 20 36 37 3 50 11 50 34 0 21 -29 35 -44 20 -7 -7 -14 -3
-22 12 l-12 23 -11 -26z"/>
<path d="M985 2290 c-3 -5 -1 -10 4 -10 6 0 11 5 11 10 0 6 -2 10 -4 10 -3 0
-8 -4 -11 -10z"/>
<path d="M950 2270 c0 -5 5 -10 10 -10 6 0 10 5 10 10 0 6 -4 10 -10 10 -5 0
-10 -4 -10 -10z"/>
<path d="M1100 2180 c0 -11 4 -20 9 -20 5 0 7 9 4 20 -3 11 -7 20 -9 20 -2 0
-4 -9 -4 -20z"/>
<path d="M3521 2044 c0 -11 3 -14 6 -6 3 7 2 16 -1 19 -3 4 -6 -2 -5 -13z"/>
<path d="M3475 2040 c3 -5 8 -10 11 -10 2 0 4 5 4 10 0 6 -5 10 -11 10 -5 0
-7 -4 -4 -10z"/>
<path d="M3787 1816 c-4 -10 -5 -21 -2 -24 9 -9 17 6 13 25 -3 17 -4 17 -11
-1z"/>
<path d="M4460 5108 c-14 -56 -13 -63 10 -62 11 0 20 -3 20 -8 0 -4 -13 -8
-28 -8 -25 0 -29 -5 -40 -45 -16 -61 -16 -65 11 -65 69 0 131 158 80 202 -37
31 -42 30 -53 -14z"/>
<path d="M4785 5030 c-19 -36 -19 -40 0 -40 12 0 45 47 45 65 0 17 -32 0 -45
-25z"/>
<path d="M6426 5048 c-25 -39 -42 -116 -28 -130 18 -18 40 8 58 69 22 76 4
112 -30 61z"/>
<path d="M6814 5034 c-15 -36 -13 -64 4 -64 17 0 33 27 39 64 8 50 -22 50 -43
0z"/>
<path d="M7890 5028 c-23 -51 -27 -118 -6 -118 18 0 48 64 54 117 6 59 -21 60
-48 1z"/>
<path d="M8294 5034 c-15 -36 -13 -64 4 -64 17 0 33 27 39 64 8 50 -22 50 -43
0z"/>
<path d="M8792 5045 c-17 -36 -15 -75 3 -75 18 0 33 26 37 65 4 39 -24 46 -40
10z"/>
<path d="M9422 5045 c-17 -36 -15 -75 3 -75 18 0 33 26 37 65 4 39 -24 46 -40
10z"/>
<path d="M8331 4561 c-27 -63 -28 -101 -3 -101 21 0 49 52 58 110 6 35 4 40
-13 40 -15 0 -26 -14 -42 -49z"/>
<path d="M6001 4129 c-33 -54 -39 -129 -11 -129 16 0 50 78 53 117 3 47 -17
53 -42 12z"/>
<path d="M6840 4118 c-23 -51 -27 -118 -6 -118 18 0 48 64 54 117 6 59 -21 60
-48 1z"/>
<path d="M8000 4118 c-23 -51 -27 -118 -6 -118 18 0 48 64 54 117 6 59 -21 60
-48 1z"/>
<path d="M2565 2537 c-8 -19 -2 -31 13 -26 5 2 6 13 2 24 -7 19 -8 19 -15 2z"/>
<path d="M2650 2491 c0 -6 5 -13 10 -16 6 -3 10 1 10 9 0 9 -4 16 -10 16 -5 0
-10 -4 -10 -9z"/>
<path d="M2885 2430 c-4 -6 -11 -8 -16 -5 -5 4 -9 0 -9 -8 0 -10 7 -13 20 -10
11 3 20 12 20 19 0 16 -6 18 -15 4z"/>
<path d="M2662 2300 c0 -14 2 -19 5 -12 2 6 2 18 0 25 -3 6 -5 1 -5 -13z"/>
<path d="M303 1423 c-15 -5 -17 -23 -4 -23 5 0 11 7 15 15 3 8 4 15 3 14 -1 0
-8 -3 -14 -6z"/>
<path d="M422 1340 c0 -14 2 -19 5 -12 2 6 2 18 0 25 -3 6 -5 1 -5 -13z"/>
<path d="M3962 1254 c1 -9 9 -19 16 -22 9 -3 13 2 10 14 -1 9 -9 19 -16 22 -9
3 -13 -2 -10 -14z"/>
<path d="M920 1000 c0 -5 5 -10 11 -10 5 0 7 5 4 10 -3 6 -8 10 -11 10 -2 0
-4 -4 -4 -10z"/>
<path d="M840 900 c-8 -5 -24 -7 -35 -4 -13 4 -10 -2 10 -15 32 -22 55 -27 55
-12 0 5 9 13 20 16 11 3 20 11 20 16 0 12 -51 11 -70 -1z"/>
<path d="M975 889 c-11 -17 1 -21 15 -4 8 9 8 15 2 15 -6 0 -14 -5 -17 -11z"/>
<path d="M715 839 c-10 -14 -1 -21 19 -13 9 3 13 10 10 15 -7 12 -21 11 -29
-2z"/>
<path d="M961 826 c-16 -19 -61 -27 -61 -10 0 8 -6 11 -15 8 -8 -4 -15 -10
-15 -16 0 -16 29 -40 40 -33 5 3 10 1 10 -4 0 -6 7 -11 16 -11 10 0 14 -5 10
-16 -3 -9 -2 -12 5 -9 5 4 9 14 8 23 -3 32 1 40 21 45 13 3 18 10 14 21 -8 20
-18 20 -33 2z"/>
<path d="M640 785 c0 -22 -3 -25 -27 -19 -22 6 -25 4 -20 -9 3 -9 2 -19 -4
-22 -15 -10 0 -25 25 -25 28 0 59 32 51 53 -4 8 -2 18 4 22 18 10 12 25 -9 25
-15 0 -20 -7 -20 -25z"/>
<path d="M790 744 c0 -8 5 -12 10 -9 6 3 10 10 10 16 0 5 -4 9 -10 9 -5 0 -10
-7 -10 -16z"/>
<path d="M83 155 c0 -8 4 -12 9 -9 10 7 10 24 0 24 -5 0 -9 -7 -9 -15z"/>
<path d="M118 378 c-2 -7 -2 -25 1 -40 l6 -27 27 24 27 23 -24 16 c-29 19 -32
19 -37 4z"/>
</g>
</svg>
